<svg width="15" height="13" viewBox="0 0 15 13" fill="none" xmlns="http://www.w3.org/2000/svg">
<path d="M7.5 0C5.51088 0 3.60322 0.684819 2.1967 1.90381C0.790176 3.12279 0 4.77609 0 6.5C0 8.22391 0.790176 9.87721 2.1967 11.0962C3.60322 12.3152 5.51088 13 7.5 13C9.48912 13 11.3968 12.3152 12.8033 11.0962C14.2098 9.87721 15 8.22391 15 6.5C15 4.77609 14.2098 3.12279 12.8033 1.90381C11.3968 0.684819 9.48912 0 7.5 0ZM11.25 6.513C11.2513 6.58293 11.2362 6.65235 11.2058 6.71713C11.1754 6.78191 11.1302 6.8407 11.073 6.89L8.604 9.0233C8.54796 9.07195 8.48141 9.11057 8.40815 9.13693C8.33489 9.1633 8.25636 9.1769 8.17703 9.17696C8.09771 9.17702 8.01915 9.16354 7.94583 9.13728C7.87252 9.11103 7.80589 9.07252 7.74975 9.02395C7.69361 8.97538 7.64906 8.9177 7.61864 8.85421C7.58822 8.79072 7.57252 8.72266 7.57245 8.65391C7.57238 8.58516 7.58794 8.51708 7.61823 8.45354C7.64852 8.39 7.69296 8.33225 7.749 8.2836L9.195 7.0291H4.35C4.19087 7.0291 4.03826 6.97431 3.92574 6.8768C3.81321 6.77928 3.75 6.64701 3.75 6.5091C3.75 6.37119 3.81321 6.23892 3.92574 6.1414C4.03826 6.04389 4.19087 5.9891 4.35 5.9891H9.2085L7.749 4.7242C7.63562 4.62594 7.57192 4.49266 7.57192 4.3537C7.57192 4.28489 7.58756 4.21676 7.61794 4.15319C7.64833 4.08962 7.69286 4.03185 7.749 3.9832C7.80514 3.93455 7.87179 3.89595 7.94514 3.86962C8.01849 3.84329 8.09711 3.82973 8.1765 3.82973C8.33684 3.82973 8.49062 3.88494 8.604 3.9832L11.073 6.1165C11.1293 6.16503 11.174 6.22277 11.2044 6.28637C11.2347 6.34997 11.2503 6.41816 11.25 6.487V6.513Z" fill="#722594"/>
</svg>
