<svg width="100" height="100" viewBox="0 0 100 100" fill="none" xmlns="http://www.w3.org/2000/svg">
<rect x="8.02637" y="5.86334" width="83.4124" height="87.3311" rx="41.7062" fill="#722594"/>
<path d="M51.113 38.0785C56.2359 38.0785 60.4032 33.7442 60.4032 28.4199C60.4032 23.0956 56.2344 18.7629 51.113 18.7629C45.9886 18.7629 41.8198 23.0956 41.8198 28.4199C41.8198 33.7442 45.9901 38.0785 51.113 38.0785Z" fill="white"/>
<path d="M27.0001 47.463C24.1579 47.463 21.4537 46.0328 19.7641 43.6399C19.6369 43.4593 19.3949 43.419 19.218 43.5512C15.8033 46.1376 13.7646 50.2961 13.7646 54.6771C13.7646 54.7449 13.7833 61.5591 13.8252 62.0251C13.8469 62.2347 14.0144 62.3944 14.2161 62.3944H30.7236C30.7034 58.5841 30.6972 54.3514 30.6972 54.2789C30.6972 51.1668 31.3907 48.1402 32.6241 45.3797C31.0417 46.7052 29.0573 47.463 27.0001 47.463Z" fill="white"/>
<path d="M82.7794 43.5529C82.601 43.4207 82.359 43.4594 82.2318 43.6416C80.5158 46.07 77.8784 47.4648 74.9958 47.4648C73.0813 47.4648 71.2319 46.8004 69.71 45.6427C70.872 48.3339 71.5267 51.2637 71.5267 54.2774C71.5267 54.35 71.5205 58.581 71.5019 62.3929H87.7798C87.9815 62.3929 88.1506 62.2333 88.1707 62.0236C88.2126 61.5576 88.2328 54.7434 88.2328 54.6757C88.2343 50.2962 86.1957 46.1377 82.7794 43.5529Z" fill="white"/>
<path d="M61.2721 39.7526C61.0921 39.6187 60.8516 39.6591 60.7244 39.8397C58.4779 43.0194 54.8832 44.9173 51.1131 44.9173C47.3431 44.9173 43.7468 43.0178 41.4987 39.8397C41.37 39.6591 41.128 39.6204 40.9511 39.7526C36.4938 43.1258 33.833 48.555 33.833 54.2776C33.833 54.4066 33.8594 67.4611 33.9121 68.0528C33.9307 68.2609 34.0999 68.4221 34.3015 68.4221H67.92C68.1233 68.4221 68.2908 68.2625 68.311 68.0528C68.3653 67.4562 68.3932 54.4066 68.3932 54.2776C68.3932 48.5566 65.7294 43.1258 61.2721 39.7526Z" fill="white"/>
<path d="M27.0003 40.9405C30.9488 40.9405 34.1603 37.5994 34.1603 33.4957C34.1603 29.3936 30.9488 26.0558 27.0003 26.0558C23.0518 26.0558 19.8403 29.3936 19.8403 33.4957C19.8403 37.5994 23.0518 40.9405 27.0003 40.9405Z" fill="white"/>
<path d="M74.9973 40.9405C78.9457 40.9405 82.1588 37.5994 82.1588 33.4957C82.1588 29.3936 78.9457 26.0558 74.9973 26.0558C71.0504 26.0558 67.8389 29.3936 67.8389 33.4957C67.8389 37.5994 71.0504 40.9405 74.9973 40.9405Z" fill="white"/>
<path d="M98.667 49.7801C98.667 76.8694 76.709 98.8295 49.6226 98.8295C22.5361 98.8295 0.578125 76.8694 0.578125 49.7801C0.578125 22.6908 22.5361 0.730652 49.6226 0.730652C76.709 0.730652 98.667 22.6908 98.667 49.7801Z" stroke="#722594"/>
</svg>
