<svg width="100" height="100" viewBox="0 0 100 100" fill="none" xmlns="http://www.w3.org/2000/svg">
<ellipse cx="50.6194" cy="50.5963" rx="37.3548" ry="37.3585" fill="white"/>
<path fill-rule="evenodd" clip-rule="evenodd" d="M49.9995 7C44.3527 7 38.7611 8.09929 33.5441 10.2351C28.3271 12.3709 23.5868 15.5015 19.5939 19.448C15.601 23.3944 12.4336 28.0796 10.2727 33.2359C8.11173 38.3923 6.99951 43.9188 6.99951 49.5C6.99951 55.0812 8.11173 60.6077 10.2727 65.7641C12.4336 70.9204 15.601 75.6056 19.5939 79.552C23.5868 83.4985 28.3271 86.6291 33.5441 88.7649C38.7611 90.9007 44.3527 92 49.9995 92C55.6464 92 61.2379 90.9007 66.4549 88.7649C71.6719 86.6291 76.4122 83.4985 80.4051 79.552C84.398 75.6056 87.5654 70.9204 89.7263 65.7641C91.8873 60.6077 92.9995 55.0812 92.9995 49.5C92.9995 43.9188 91.8873 38.3923 89.7263 33.2359C87.5654 28.0796 84.398 23.3944 80.4051 19.448C76.4122 15.5015 71.6719 12.3709 66.4549 10.2351C61.2379 8.09929 55.6464 7 49.9995 7ZM48.2728 13.8H51.7128V15.4934V24.0033V25.6967H48.2728V24.0033V15.4934V13.8ZM29.3058 26.6795L49.5393 44.4232C49.6923 44.4087 49.8458 44.401 49.9995 44.4C50.6291 44.402 51.2531 44.5179 51.8405 44.742C63.1336 39.0066 80.422 30.1824 80.422 30.1824L82.1387 33.1176L55.0856 50.3068C54.8917 51.5028 54.2735 52.5916 53.3416 53.3782C52.4097 54.1648 51.225 54.5979 49.9995 54.6C49.6816 54.599 49.3645 54.569 49.0522 54.5104L34.2944 79.7979L33.4311 81.2654L30.448 79.5721L31.3113 78.0912L46.0825 52.8104C45.2826 51.8884 44.8418 50.7145 44.8395 49.5C44.8407 49.3503 44.8485 49.2008 44.863 49.0518L26.8736 29.0834L29.3058 26.6795ZM13.8762 47.7967H15.6062H24.1995H25.9128V51.1967H24.1995H15.6062H13.8762V47.7967ZM74.0728 47.7967H75.7995H84.3962H86.1229V51.1967H84.3962H75.7995H74.0728V47.7967ZM48.2728 73.2967H51.7128V75.0033V83.5V85.2066H48.2728V83.5V75.0033V73.2967Z" fill="#722594"/>
<path d="M98.5884 49.5494C98.5884 76.6387 76.6304 98.5988 49.544 98.5988C22.4575 98.5988 0.499512 76.6387 0.499512 49.5494C0.499512 22.4601 22.4575 0.5 49.544 0.5C76.6304 0.5 98.5884 22.4601 98.5884 49.5494Z" stroke="#722594"/>
</svg>
