<svg width="39" height="26" viewBox="0 0 39 26" fill="none" xmlns="http://www.w3.org/2000/svg">
<rect width="39" height="26" fill="#1E1E1E"/>
<g id="About us" clip-path="url(#clip0_0_1)">
<rect width="1512" height="7111" transform="translate(-196 -5332)" fill="black"/>
<path id="Vector" d="M37.8016 14.6851V26H23.2936V17.0623C23.2936 12.222 24.0952 8.7188 25.6984 6.55278C27.8016 3.66737 31.1349 1.47789 35.6905 0L39 3.79248C36.246 4.62135 34.2143 5.85684 32.9127 7.49895C31.6111 9.14105 30.881 11.5338 30.7302 14.6773H37.7937L37.8016 14.6851ZM14.5 14.6851V26H0V17.0623C0 12.222 0.801587 8.7188 2.40476 6.55278C4.50794 3.66737 7.84127 1.47789 12.3968 0L15.7064 3.79248C12.9524 4.62135 10.9206 5.85684 9.61905 7.49895C8.31746 9.14105 7.5873 11.5338 7.43651 14.6773H14.5V14.6851Z" fill="white"/>
</g>
<defs>
<clipPath id="clip0_0_1">
<rect width="1512" height="7111" fill="white" transform="translate(-196 -5332)"/>
</clipPath>
</defs>
</svg>
