<svg width="35" height="35" viewBox="0 0 35 35" fill="none" xmlns="http://www.w3.org/2000/svg">
<g id="Group">
<path id="Vector" d="M33.7 0.383339C33.1888 -0.127812 32.3602 -0.127747 31.8491 0.383339L17.0416 15.1908L2.23426 0.383419C1.72313 -0.127733 0.894484 -0.127733 0.383346 0.383419C-0.127786 0.894505 -0.12778 1.72315 0.383352 2.2343L15.1907 17.0417L0.383391 31.849C-0.127722 32.3601 -0.127741 33.1888 0.383385 33.6999C0.894523 34.211 1.7232 34.211 2.23431 33.6999L17.0416 18.8926L31.849 33.6999C32.3602 34.2111 33.1888 34.2111 33.6999 33.6999C34.2111 33.1888 34.2111 32.3602 33.6999 31.849L18.8926 17.0417L33.7 2.23422C34.2111 1.72314 34.2111 0.894491 33.7 0.383339Z" fill="white"/>
</g>
</svg>
