<svg width="54" height="54" viewBox="0 0 54 54" fill="none" xmlns="http://www.w3.org/2000/svg">
<path d="M29.943 27.5881C29.886 27.7771 29.85 27.9721 29.775 28.1521C29.571 28.6411 29.4541 28.7251 29.1241 29.1271L5.1121 53.1415C4.95912 53.2645 4.81815 53.4055 4.65617 53.5135C3.35133 54.3865 1.38058 54.0115 0.492687 52.6855C-0.16423 51.7016 -0.16423 50.3336 0.492687 49.3496C0.600674 49.1876 0.741657 49.0466 0.867641 48.8966L22.7559 27.0031L0.867641 5.11263L0.492687 4.65664C0.3997 4.48565 0.29171 4.32065 0.216721 4.13765C-0.311214 2.86868 0.156727 1.27272 1.32058 0.492739C2.30446 -0.164246 3.67229 -0.164246 4.65617 0.492739C4.81815 0.603736 4.95912 0.741733 5.1121 0.86773L29.1241 24.8822C29.2471 25.0322 29.3881 25.1732 29.496 25.3352C29.715 25.6652 29.868 26.0312 29.943 26.4181C30.021 26.8021 29.982 27.1981 29.943 27.5881ZM53.955 27.5881C53.898 27.7771 53.859 27.9721 53.784 28.1521C53.583 28.6411 53.463 28.7251 53.1361 29.1271L29.1241 53.1415C28.9711 53.2645 28.8301 53.4055 28.6681 53.5135C27.5253 54.2785 25.8695 54.1315 24.8796 53.1415C23.9047 52.1666 23.7368 50.5016 24.5047 49.3496C24.6127 49.1876 24.7536 49.0466 24.8796 48.8966L46.7679 27.0031L24.8796 5.11263L24.5047 4.65664C24.4117 4.48565 24.3037 4.32065 24.2287 4.13765C23.7008 2.86568 24.1837 1.26072 25.3326 0.492739C26.3164 -0.164246 27.6843 -0.164246 28.6681 0.492739C28.8301 0.603736 28.9711 0.741733 29.1241 0.86773L53.1361 24.8822C53.2591 25.0322 53.4 25.1732 53.508 25.3352C53.727 25.6652 53.88 26.0312 53.955 26.4181C54.033 26.8021 53.994 27.1981 53.955 27.5881Z" fill="white"/>
</svg>
