<svg width="23" height="17" viewBox="0 0 23 17" fill="none" xmlns="http://www.w3.org/2000/svg">
<rect width="23" height="17" fill="#1E1E1E"/>
<g id="New Home Page" clip-path="url(#clip0_0_1)">
<rect width="1512" height="10317" transform="translate(-200 -9980)" fill="black"/>
<g id="Group 344">
<rect id="Rectangle 62" x="-200" y="-315" width="1512" height="601" fill="#100F0F"/>
<g id="Group 257">
<path id="Vector" d="M2.8721 1.66555L9.31346 6.202L10.3493 6.93616C10.8132 7.27584 11.4174 7.27584 11.8814 6.94711L13.2193 6.00476L19.3585 1.66555L20.4051 0.931395L20.923 0.558838C20.4375 0.208195 19.844 0 19.2075 0H3.02315C2.38657 0 1.79315 0.208195 1.30762 0.558838L2.32291 1.27437L2.8721 1.66555Z" fill="#722594"/>
<path id="Vector_2" d="M21.3741 2.3975L20.9154 2.71874L15.2471 6.6662L12.8179 8.36497C12.3083 8.72432 11.7118 8.89856 11.1154 8.89856C10.5189 8.89856 9.92251 8.72432 9.41283 8.35408L7.62353 7.11267L1.34144 2.73725L0.856698 2.3975L0.22773 1.96191C0.07591 2.31038 0 2.7024 0 3.11621V14.0058C0 15.661 1.33385 17.0004 2.98218 17.0004H19.2486C20.8969 17.0004 22.2308 15.661 22.2308 14.0058V3.11621C22.2308 2.7024 22.1549 2.31038 22.003 1.96191L21.3741 2.3975Z" fill="#722594"/>
</g>
</g>
</g>
<defs>
<clipPath id="clip0_0_1">
<rect width="1512" height="10317" fill="white" transform="translate(-200 -9980)"/>
</clipPath>
</defs>
</svg>
