<svg width="80" height="99" viewBox="0 0 80 99" fill="none" xmlns="http://www.w3.org/2000/svg">
<g filter="url(#filter0_d_497_139)">
<path d="M4.01576 17.5158C3.968 17.1972 4.02957 16.8713 4.18972 16.5951C4.34987 16.3189 4.59839 16.11 4.8918 16.005C16.3329 10.7624 27.7418 5.49556 39.1186 0.20446C39.3754 0.0700264 39.659 0 39.9465 0C40.234 0 40.5176 0.0700264 40.7744 0.20446C52.2213 5.5259 63.6682 10.8018 75.1151 16.0323C75.393 16.1091 75.6348 16.2878 75.7958 16.5354C75.9568 16.783 76.0262 17.0827 75.9911 17.3793C75.9911 25.4798 75.9911 33.5894 75.9473 41.6899C75.9317 44.3449 75.7238 46.9949 75.3253 49.6174C74.0447 57.9678 70.8309 65.8701 65.9605 72.6447C59.7406 81.355 51.7862 87.5805 41.7117 90.7297C40.6232 91.0901 39.4538 91.0901 38.3652 90.7297C29.051 87.848 20.8636 81.9561 14.9925 73.9098C7.87185 64.5997 4.02129 53.0443 4.07709 41.1529C4.07709 37.6487 4.07709 34.1537 4.07709 30.6495C4.07709 26.2716 4.07709 21.8937 4.01576 17.5158ZM66.6964 45.5035H67.879C67.879 45.1303 67.9316 44.8118 67.9316 44.5023C67.9316 37.221 67.9316 29.9609 67.9316 22.722C67.9799 22.4766 67.9419 22.2214 67.8246 22.0026C67.7073 21.7839 67.5183 21.6161 67.2921 21.5297C58.4382 17.4885 49.5902 13.4201 40.7481 9.32433C40.5291 9.22422 40.2925 9.1605 39.9859 9.04218C39.9859 9.39715 39.9859 9.65199 39.9859 9.90684C39.9859 21.5448 39.9859 33.1798 39.9859 44.8118C39.9859 45.0666 39.9859 45.3214 40.0472 45.5854C39.802 45.5854 39.5567 45.5126 39.3026 45.5126H12.8375C12.6272 45.5126 12.4082 45.5126 12.198 45.5126C13.4419 59.693 23.6303 77.3684 40.0472 82.4654V45.5035H66.6964Z" fill="white"/>
</g>
<defs>
<filter id="filter0_d_497_139" x="0" y="0" width="80" height="99" filterUnits="userSpaceOnUse" color-interpolation-filters="sRGB">
<feFlood flood-opacity="0" result="BackgroundImageFix"/>
<feColorMatrix in="SourceAlpha" type="matrix" values="0 0 0 0 0 0 0 0 0 0 0 0 0 0 0 0 0 0 127 0" result="hardAlpha"/>
<feOffset dy="4"/>
<feGaussianBlur stdDeviation="2"/>
<feComposite in2="hardAlpha" operator="out"/>
<feColorMatrix type="matrix" values="0 0 0 0 0 0 0 0 0 0 0 0 0 0 0 0 0 0 0.25 0"/>
<feBlend mode="normal" in2="BackgroundImageFix" result="effect1_dropShadow_497_139"/>
<feBlend mode="normal" in="SourceGraphic" in2="effect1_dropShadow_497_139" result="shape"/>
</filter>
</defs>
</svg>
