<svg width="89" height="89" viewBox="0 0 89 89" fill="none" xmlns="http://www.w3.org/2000/svg">
<g filter="url(#filter0_d_497_140)">
<path d="M57.2565 10.0585C56.7385 9.86897 56.2457 9.64152 55.7277 9.47725C52.1899 8.17572 48.3994 7.46809 44.4068 7.46809C26.2251 7.45545 11.4548 22.2272 11.4548 40.4486C11.4548 58.6448 26.2125 73.4039 44.4068 73.4039C62.6011 73.4039 77.4093 58.6448 77.4093 40.4486C77.4093 26.7636 69.0702 15.0498 57.2565 10.0585ZM53.4281 53.3249C51.6719 55.1698 49.2712 56.3071 46.201 56.7367V60.894H42.7642V56.8378C40.0351 56.5093 37.8366 55.5742 36.1183 53.982C34.3999 52.3646 33.3259 50.1153 32.8458 47.1711L39.0369 46.5519C39.3023 47.7524 39.7445 48.7885 40.4647 49.6352C41.147 50.5071 41.9303 51.1262 42.7642 51.518V42.1798C39.6813 41.3711 37.407 40.1074 35.954 38.4142C34.5263 36.7336 33.8187 34.6865 33.8187 32.2856C33.8187 29.8468 34.6273 27.8124 36.2572 26.1571C37.9124 24.5017 40.0477 23.5666 42.7769 23.3013V21.0899H46.2136V23.3013C48.7153 23.5919 50.7243 24.3754 52.2152 25.7401C53.6808 27.0416 54.6537 28.8233 55.0328 31.0599L49.0691 31.7675C48.6774 30.0111 47.7677 28.8486 46.2136 28.2294V36.9231C50.0041 37.8582 52.569 39.1345 53.9714 40.6508C55.336 42.1798 56.0183 44.151 56.0183 46.5519C55.993 49.2434 55.1465 51.518 53.4281 53.3249Z" fill="white"/>
<path d="M44.4192 0C22.0932 0 4 18.0951 4 40.4485C4 62.7641 22.0932 80.8718 44.4192 80.8718C66.7704 80.8718 84.8637 62.7641 84.8637 40.4485C84.8637 18.0951 66.7704 0 44.4192 0ZM44.4192 76.1206C24.734 76.1206 8.75074 60.1358 8.75074 40.4485C8.75074 20.7234 24.734 4.73858 44.4192 4.73858C64.1424 4.73858 80.1129 20.7234 80.1129 40.4485C80.1129 60.1358 64.1297 76.1206 44.4192 76.1206Z" fill="white"/>
</g>
<defs>
<filter id="filter0_d_497_140" x="0" y="0" width="88.8638" height="88.8718" filterUnits="userSpaceOnUse" color-interpolation-filters="sRGB">
<feFlood flood-opacity="0" result="BackgroundImageFix"/>
<feColorMatrix in="SourceAlpha" type="matrix" values="0 0 0 0 0 0 0 0 0 0 0 0 0 0 0 0 0 0 127 0" result="hardAlpha"/>
<feOffset dy="4"/>
<feGaussianBlur stdDeviation="2"/>
<feComposite in2="hardAlpha" operator="out"/>
<feColorMatrix type="matrix" values="0 0 0 0 0 0 0 0 0 0 0 0 0 0 0 0 0 0 0.25 0"/>
<feBlend mode="normal" in2="BackgroundImageFix" result="effect1_dropShadow_497_140"/>
<feBlend mode="normal" in="SourceGraphic" in2="effect1_dropShadow_497_140" result="shape"/>
</filter>
</defs>
</svg>
