<svg width="95" height="95" viewBox="0 0 95 95" fill="none" xmlns="http://www.w3.org/2000/svg">
<g filter="url(#filter0_d_497_125)">
<path d="M47.258 86.5248C38.9747 86.5248 34.6411 64.7607 34.6411 43.2624C34.6411 21.7641 38.9747 0 47.258 0C55.5414 0 59.875 21.7641 59.875 43.2624C59.875 64.7607 55.5414 86.5248 47.258 86.5248ZM47.258 3.6052C43.5828 3.6052 38.246 19.054 38.246 43.2624C38.246 67.4708 43.5828 82.9196 47.258 82.9196C50.9333 82.9196 56.2701 67.4708 56.2701 43.2624C56.2701 19.054 50.9333 3.6052 47.258 3.6052Z" fill="white"/>
<path d="M20.8221 75.3818C19.076 75.3818 17.6907 74.873 16.6716 73.8538C13.9151 71.0989 14.8903 65.655 19.5688 57.6735C23.7352 50.5635 30.4009 42.2766 38.3376 34.3401C46.2724 26.4035 54.5593 19.7379 61.6687 15.5694C69.6528 10.8895 75.0918 9.91694 77.8465 12.6719C80.6029 15.4268 79.6278 20.8707 74.9492 28.8522C70.7811 35.9622 64.1153 44.2491 56.1805 52.1848C48.2438 60.1213 39.9587 66.7878 32.8493 70.9554C27.8205 73.904 23.7985 75.3818 20.8221 75.3818ZM73.6731 14.7667C71.8847 14.7667 68.6601 15.6504 63.4905 18.68C56.6399 22.6971 48.6117 29.1638 40.8863 36.8891C33.1609 44.6152 26.6958 52.6433 22.6791 59.4964C18.2258 67.0941 18.4089 70.4933 19.2203 71.3048C20.0318 72.1163 23.4271 72.3012 31.0276 67.8448C37.8782 63.8277 45.9063 57.3611 53.6317 49.6358C61.3571 41.9105 67.8223 33.8815 71.839 27.0284C76.2922 19.4308 76.1092 16.0315 75.2977 15.2209C75.039 14.9621 74.5144 14.7667 73.6731 14.7667Z" fill="white"/>
<path d="M20.8221 75.3818C19.076 75.3818 17.6907 74.873 16.6716 73.8538C13.9151 71.0989 14.8903 65.655 19.5688 57.6735C23.7352 50.5635 30.4009 42.2766 38.3376 34.3401C46.2724 26.4035 54.5593 19.7379 61.6687 15.5694C69.6528 10.8895 75.0918 9.91694 77.8465 12.6719C80.6029 15.4268 79.6278 20.8707 74.9492 28.8522C70.7811 35.9622 64.1153 44.2491 56.1805 52.1848C48.2438 60.1213 39.9587 66.7878 32.8493 70.9554C27.8205 73.904 23.7985 75.3818 20.8221 75.3818ZM73.6731 14.7667C71.8847 14.7667 68.6601 15.6504 63.4905 18.68C56.6399 22.6971 48.6117 29.1638 40.8863 36.8891C33.1609 44.6152 26.6958 52.6433 22.6791 59.4964C18.2258 67.0941 18.4089 70.4933 19.2203 71.3048C20.0318 72.1163 23.4271 72.3012 31.0276 67.8448C37.8782 63.8277 45.9063 57.3611 53.6317 49.6358C61.3571 41.9105 67.8223 33.8815 71.839 27.0284C76.2922 19.4308 76.1092 16.0315 75.2977 15.2209C75.039 14.9621 74.5144 14.7667 73.6731 14.7667Z" fill="white"/>
<path d="M47.2581 55.8806C25.761 55.8806 4 51.5466 4 43.2624C4 34.9782 25.761 30.6442 47.2581 30.6442C68.7551 30.6442 90.5161 34.9782 90.5161 43.2624C90.5161 51.5466 68.7551 55.8806 47.2581 55.8806ZM47.2581 34.2494C23.0521 34.2494 7.60484 39.5877 7.60484 43.2624C7.60484 46.9371 23.0521 52.2754 47.2581 52.2754C71.464 52.2754 86.9113 46.9371 86.9113 43.2624C86.9113 39.5877 71.464 34.2494 47.2581 34.2494Z" fill="white"/>
<path d="M73.696 75.3816C70.7195 75.3816 66.6975 73.9038 61.6687 70.9552C54.5593 66.7876 46.2742 60.1211 38.3376 52.1846C30.4027 44.2489 23.7369 35.9621 19.5688 28.852C14.8903 20.8706 13.9151 15.4267 16.6716 12.6717C19.428 9.91239 24.8722 10.892 32.8493 15.5693C39.9587 19.7378 48.2456 26.4034 56.1805 34.3399C64.1171 42.2765 70.7829 50.5633 74.9492 57.6734C79.6278 65.6548 80.6029 71.0987 77.8465 73.8536C76.8273 74.8729 75.4421 75.3816 73.696 75.3816ZM20.845 14.7666C20.0036 14.7666 19.4791 14.962 19.2203 15.2207C18.4089 16.0314 18.2258 19.4306 22.6791 27.0283C26.6958 33.8813 33.1609 41.9103 40.8863 49.6356C48.6117 57.3609 56.6399 63.8276 63.4922 67.8447C71.0856 72.2966 74.4863 72.1153 75.2977 71.3047C76.1092 70.4931 76.2922 67.0939 71.839 59.4962C67.8223 52.6432 61.3571 44.6151 53.6317 36.8889C45.9063 29.1636 37.8782 22.6969 31.0276 18.6798C25.8579 15.6503 22.6333 14.7666 20.845 14.7666Z" fill="white"/>
<path d="M47.258 48.6688C44.2763 48.6688 41.8508 46.2434 41.8508 43.2617C41.8508 40.28 44.2763 37.8546 47.258 37.8546C50.2396 37.8546 52.6651 40.28 52.6651 43.2617C52.6651 46.2434 50.2396 48.6688 47.258 48.6688ZM47.258 41.4593C46.2635 41.4593 45.4556 42.2681 45.4556 43.2617C45.4556 44.2553 46.2635 45.0641 47.258 45.0641C48.2524 45.0641 49.0603 44.2553 49.0603 43.2617C49.0603 42.2681 48.2524 41.4593 47.258 41.4593Z" fill="white"/>
</g>
<defs>
<filter id="filter0_d_497_125" x="0" y="0" width="94.5161" height="94.5248" filterUnits="userSpaceOnUse" color-interpolation-filters="sRGB">
<feFlood flood-opacity="0" result="BackgroundImageFix"/>
<feColorMatrix in="SourceAlpha" type="matrix" values="0 0 0 0 0 0 0 0 0 0 0 0 0 0 0 0 0 0 127 0" result="hardAlpha"/>
<feOffset dy="4"/>
<feGaussianBlur stdDeviation="2"/>
<feComposite in2="hardAlpha" operator="out"/>
<feColorMatrix type="matrix" values="0 0 0 0 0 0 0 0 0 0 0 0 0 0 0 0 0 0 0.25 0"/>
<feBlend mode="normal" in2="BackgroundImageFix" result="effect1_dropShadow_497_125"/>
<feBlend mode="normal" in="SourceGraphic" in2="effect1_dropShadow_497_125" result="shape"/>
</filter>
</defs>
</svg>
