<svg width="83" height="89" viewBox="0 0 83 89" fill="none" xmlns="http://www.w3.org/2000/svg">
<g filter="url(#filter0_d_499_601)">
<path d="M11.8125 29.5962C9.74124 29.5986 7.75552 30.4199 6.29092 31.88C4.82632 33.3401 4.00244 35.3197 4 37.3846C4 40.8738 6.77094 51.4038 11.8125 51.4038C16.8541 51.4038 19.625 40.8738 19.625 37.3846C19.6226 35.3197 18.7987 33.3401 17.3341 31.88C15.8695 30.4199 13.8838 29.5986 11.8125 29.5962ZM11.8125 38.9423C11.5035 38.9423 11.2014 38.851 10.9444 38.6798C10.6875 38.5086 10.4872 38.2653 10.3689 37.9807C10.2507 37.6961 10.2197 37.3829 10.28 37.0807C10.3403 36.7786 10.4891 36.501 10.7076 36.2832C10.9262 36.0653 11.2046 35.917 11.5077 35.8569C11.8108 35.7967 12.1249 35.8276 12.4104 35.9455C12.696 36.0634 12.94 36.263 13.1117 36.5192C13.2834 36.7754 13.375 37.0765 13.375 37.3846C13.375 37.7977 13.2104 38.1939 12.9174 38.4861C12.6243 38.7782 12.2269 38.9423 11.8125 38.9423ZM35.25 7.78846C35.25 8.20159 35.0854 8.5978 34.7924 8.88992C34.4993 9.18204 34.1019 9.34616 33.6875 9.34616H27.4375C27.0231 9.34616 26.6257 9.18204 26.3326 8.88992C26.0396 8.5978 25.875 8.20159 25.875 7.78846C25.875 7.37534 26.0396 6.97913 26.3326 6.68701C26.6257 6.39489 27.0231 6.23077 27.4375 6.23077H33.6875C34.1019 6.23077 34.4993 6.39489 34.7924 6.68701C35.0854 6.97913 35.25 7.37534 35.25 7.78846ZM47.75 7.78846C47.75 8.20159 47.5854 8.5978 47.2924 8.88992C46.9993 9.18204 46.6019 9.34616 46.1875 9.34616H39.9375C39.5231 9.34616 39.1257 9.18204 38.8326 8.88992C38.5396 8.5978 38.375 8.20159 38.375 7.78846C38.375 7.37534 38.5396 6.97913 38.8326 6.68701C39.1257 6.39489 39.5231 6.23077 39.9375 6.23077H46.1875C46.6019 6.23077 46.9993 6.39489 47.2924 6.68701C47.5854 6.97913 47.75 7.37534 47.75 7.78846ZM60.25 7.78846C60.25 8.20159 60.0854 8.5978 59.7924 8.88992C59.4993 9.18204 59.1019 9.34616 58.6875 9.34616H52.4375C52.0231 9.34616 51.6257 9.18204 51.3326 8.88992C51.0396 8.5978 50.875 8.20159 50.875 7.78846C50.875 7.37534 51.0396 6.97913 51.3326 6.68701C51.6257 6.39489 52.0231 6.23077 52.4375 6.23077H58.6875C59.1019 6.23077 59.4993 6.39489 59.7924 6.68701C60.0854 6.97913 60.25 7.37534 60.25 7.78846ZM32.125 42.0577C32.125 42.4708 31.9604 42.867 31.6674 43.1591C31.3743 43.4513 30.9769 43.6154 30.5625 43.6154H24.3125C23.8981 43.6154 23.5007 43.4513 23.2076 43.1591C22.9146 42.867 22.75 42.4708 22.75 42.0577C22.75 41.6446 22.9146 41.2484 23.2076 40.9562C23.5007 40.6641 23.8981 40.5 24.3125 40.5H30.5625C30.9769 40.5 31.3743 40.6641 31.6674 40.9562C31.9604 41.2484 32.125 41.6446 32.125 42.0577ZM46.1875 42.0577C46.1875 42.4708 46.0229 42.867 45.7299 43.1591C45.4368 43.4513 45.0394 43.6154 44.625 43.6154H38.375C37.9606 43.6154 37.5632 43.4513 37.2701 43.1591C36.9771 42.867 36.8125 42.4708 36.8125 42.0577C36.8125 41.6446 36.9771 41.2484 37.2701 40.9562C37.5632 40.6641 37.9606 40.5 38.375 40.5H44.625C45.0394 40.5 45.4368 40.6641 45.7299 40.9562C46.0229 41.2484 46.1875 41.6446 46.1875 42.0577ZM60.25 42.0577C60.25 42.4708 60.0854 42.867 59.7924 43.1591C59.4993 43.4513 59.1019 43.6154 58.6875 43.6154H52.4375C52.0231 43.6154 51.6257 43.4513 51.3326 43.1591C51.0396 42.867 50.875 42.4708 50.875 42.0577C50.875 41.6446 51.0396 41.2484 51.3326 40.9562C51.6257 40.6641 52.0231 40.5 52.4375 40.5H58.6875C59.1019 40.5 59.4993 40.6641 59.7924 40.9562C60.0854 41.2484 60.25 41.6446 60.25 42.0577ZM32.125 73.2115C32.125 73.6247 31.9604 74.0209 31.6674 74.313C31.3743 74.6051 30.9769 74.7692 30.5625 74.7692H24.3125C23.8981 74.7692 23.5007 74.6051 23.2076 74.313C22.9146 74.0209 22.75 73.6247 22.75 73.2115C22.75 72.7984 22.9146 72.4022 23.2076 72.1101C23.5007 71.818 23.8981 71.6538 24.3125 71.6538H30.5625C30.9769 71.6538 31.3743 71.818 31.6674 72.1101C31.9604 72.4022 32.125 72.7984 32.125 73.2115ZM19.625 73.2115C19.625 73.6247 19.4604 74.0209 19.1674 74.313C18.8743 74.6051 18.4769 74.7692 18.0625 74.7692H11.8125C11.3981 74.7692 11.0007 74.6051 10.7076 74.313C10.4146 74.0209 10.25 73.6247 10.25 73.2115C10.25 72.7984 10.4146 72.4022 10.7076 72.1101C11.0007 71.818 11.3981 71.6538 11.8125 71.6538H18.0625C18.4769 71.6538 18.8743 71.818 19.1674 72.1101C19.4604 72.4022 19.625 72.7984 19.625 73.2115ZM46.1875 73.2115C46.1875 73.6247 46.0229 74.0209 45.7299 74.313C45.4368 74.6051 45.0394 74.7692 44.625 74.7692H38.375C37.9606 74.7692 37.5632 74.6051 37.2701 74.313C36.9771 74.0209 36.8125 73.6247 36.8125 73.2115C36.8125 72.7984 36.9771 72.4022 37.2701 72.1101C37.5632 71.818 37.9606 71.6538 38.375 71.6538H44.625C45.0394 71.6538 45.4368 71.818 45.7299 72.1101C46.0229 72.4022 46.1875 72.7984 46.1875 73.2115ZM60.25 73.2115C60.25 73.6247 60.0854 74.0209 59.7924 74.313C59.4993 74.6051 59.1019 74.7692 58.6875 74.7692H52.4375C52.0231 74.7692 51.6257 74.6051 51.3326 74.313C51.0396 74.0209 50.875 73.6247 50.875 73.2115C50.875 72.7984 51.0396 72.4022 51.3326 72.1101C51.6257 71.818 52.0231 71.6538 52.4375 71.6538H58.6875C59.1019 71.6538 59.4993 71.818 59.7924 72.1101C60.0854 72.4022 60.25 72.7984 60.25 73.2115ZM72.75 21.8077C72.75 22.2208 72.5854 22.617 72.2924 22.9091C71.9993 23.2013 71.6019 23.3654 71.1875 23.3654C70.7731 23.3654 70.3757 23.2013 70.0826 22.9091C69.7896 22.617 69.625 22.2208 69.625 21.8077V18.6923C69.625 18.2792 69.7896 17.883 70.0826 17.5909C70.3757 17.2987 70.7731 17.1346 71.1875 17.1346C71.6019 17.1346 71.9993 17.2987 72.2924 17.5909C72.5854 17.883 72.75 18.2792 72.75 18.6923V21.8077ZM72.75 28.0385V31.1538C72.75 31.567 72.5854 31.9632 72.2924 32.2553C71.9993 32.5474 71.6019 32.7115 71.1875 32.7115C70.7731 32.7115 70.3757 32.5474 70.0826 32.2553C69.7896 31.9632 69.625 31.567 69.625 31.1538V28.0385C69.625 27.6253 69.7896 27.2291 70.0826 26.937C70.3757 26.6449 70.7731 26.4808 71.1875 26.4808C71.6019 26.4808 71.9993 26.6449 72.2924 26.937C72.5854 27.2291 72.75 27.6253 72.75 28.0385ZM10.25 57.6346V54.5192C10.25 54.1061 10.4146 53.7099 10.7076 53.4178C11.0007 53.1257 11.3981 52.9615 11.8125 52.9615C12.2269 52.9615 12.6243 53.1257 12.9174 53.4178C13.2104 53.7099 13.375 54.1061 13.375 54.5192V57.6346C13.375 58.0477 13.2104 58.4439 12.9174 58.7361C12.6243 59.0282 12.2269 59.1923 11.8125 59.1923C11.3981 59.1923 11.0007 59.0282 10.7076 58.7361C10.4146 58.4439 10.25 58.0477 10.25 57.6346ZM10.25 63.8654C10.25 63.4523 10.4146 63.0561 10.7076 62.7639C11.0007 62.4718 11.3981 62.3077 11.8125 62.3077C12.2269 62.3077 12.6243 62.4718 12.9174 62.7639C13.2104 63.0561 13.375 63.4523 13.375 63.8654V66.9808C13.375 67.3939 13.2104 67.7901 12.9174 68.0822C12.6243 68.3744 12.2269 68.5385 11.8125 68.5385C11.3981 68.5385 11.0007 68.3744 10.7076 68.0822C10.4146 67.7901 10.25 67.3939 10.25 66.9808V63.8654ZM14.9375 3.46728e-06C13.3923 3.46728e-06 11.8819 0.456789 10.5971 1.3126C9.31235 2.1684 8.311 3.38479 7.71969 4.80795C7.12838 6.2311 6.97367 7.7971 7.27511 9.30792C7.57656 10.8187 8.32063 12.2065 9.41323 13.2957C10.5058 14.385 11.8979 15.1268 13.4134 15.4273C14.9288 15.7278 16.4997 15.5736 17.9272 14.9841C19.3548 14.3946 20.5749 13.3963 21.4334 12.1155C22.2918 10.8347 22.75 9.32888 22.75 7.78846C22.7476 5.72358 21.9237 3.74397 20.4591 2.28388C18.9945 0.823785 17.0088 0.00243573 14.9375 3.46728e-06ZM14.9375 9.34616C14.6285 9.34616 14.3264 9.2548 14.0694 9.08364C13.8125 8.91248 13.6122 8.6692 13.4939 8.38457C13.3757 8.09994 13.3447 7.78674 13.405 7.48457C13.4653 7.18241 13.6141 6.90486 13.8326 6.68701C14.0512 6.46916 14.3296 6.32081 14.6327 6.2607C14.9358 6.2006 15.2499 6.23145 15.5354 6.34934C15.821 6.46724 16.065 6.6669 16.2367 6.92306C16.4084 7.17922 16.5 7.48038 16.5 7.78846C16.5 8.20159 16.3354 8.5978 16.0424 8.88992C15.7493 9.18204 15.3519 9.34616 14.9375 9.34616ZM71.1875 15.5769C72.7327 15.5769 74.2431 15.1201 75.5279 14.2643C76.8126 13.4085 77.814 12.1921 78.4053 10.769C78.9966 9.34582 79.1513 7.77982 78.8499 6.26901C78.5484 4.7582 77.8044 3.37043 76.7118 2.28119C75.6192 1.19196 74.2271 0.450176 72.7116 0.149657C71.1962 -0.150863 69.6253 0.00337462 68.1978 0.592865C66.7702 1.18235 65.5501 2.18062 64.6916 3.46143C63.8332 4.74223 63.375 6.24805 63.375 7.78846C63.3774 9.85335 64.2013 11.833 65.6659 13.2931C67.1305 14.7531 69.1162 15.5745 71.1875 15.5769ZM71.2364 6.13419C71.555 6.13429 71.8664 6.22857 72.1313 6.40511C72.3962 6.58166 72.6026 6.83254 72.7244 7.12603C72.8463 7.41952 72.8781 7.74243 72.8158 8.05395C72.7536 8.36546 72.6001 8.65157 72.3747 8.87611C72.1493 9.10064 71.8623 9.25351 71.5498 9.31539C71.2372 9.37727 70.9133 9.34537 70.619 9.22373C70.3247 9.10209 70.0732 8.89618 69.8962 8.63202C69.7193 8.36787 69.6249 8.05734 69.625 7.73971C69.6252 7.31379 69.795 6.90537 70.0972 6.60429C70.3994 6.30321 70.8092 6.13411 71.2364 6.13419ZM71.1875 34.2692C69.6423 34.2692 68.1319 34.726 66.8471 35.5818C65.5623 36.4376 64.561 37.654 63.9697 39.0772C63.3784 40.5003 63.2237 42.0663 63.5251 43.5771C63.8266 45.088 64.5706 46.4757 65.6632 47.565C66.7558 48.6542 68.1479 49.396 69.6634 49.6965C71.1788 49.997 72.7497 49.8428 74.1772 49.2533C75.6048 48.6638 76.8249 47.6655 77.6833 46.3847C78.5418 45.1039 79 43.5981 79 42.0577C78.9976 39.9928 78.1737 38.0132 76.7091 36.5531C75.2445 35.093 73.2588 34.2717 71.1875 34.2692ZM71.1875 43.6154C70.8785 43.6154 70.5764 43.524 70.3194 43.3529C70.0625 43.1817 69.8622 42.9384 69.7439 42.6538C69.6257 42.3692 69.5947 42.056 69.655 41.7538C69.7153 41.4516 69.8641 41.1741 70.0826 40.9562C70.3012 40.7384 70.5796 40.59 70.8827 40.5299C71.1858 40.4698 71.4999 40.5007 71.7854 40.6186C72.0709 40.7365 72.315 40.9361 72.4867 41.1923C72.6584 41.4484 72.75 41.7496 72.75 42.0577C72.75 42.4708 72.5854 42.867 72.2924 43.1591C71.9993 43.4513 71.6019 43.6154 71.1875 43.6154ZM71.1875 65.4231C69.6423 65.4231 68.1319 65.8799 66.8471 66.7357C65.5623 67.5915 64.561 68.8079 63.9697 70.231C63.3784 71.6542 63.2237 73.2202 63.5251 74.731C63.8266 76.2418 64.5706 77.6296 65.6632 78.7188C66.7558 79.808 68.1479 80.5498 69.6634 80.8503C71.1788 81.1509 72.7497 80.9966 74.1772 80.4071C75.6048 79.8176 76.8249 78.8194 77.6833 77.5386C78.5418 76.2578 79 74.752 79 73.2115C78.9976 71.1467 78.1737 69.167 76.7091 67.7069C75.2445 66.2469 73.2588 65.4255 71.1875 65.4231ZM71.1875 74.7692C70.8785 74.7692 70.5764 74.6779 70.3194 74.5067C70.0625 74.3355 69.8622 74.0923 69.7439 73.8076C69.6257 73.523 69.5947 73.2098 69.655 72.9076C69.7153 72.6055 69.8641 72.3279 70.0826 72.1101C70.3012 71.8922 70.5796 71.7439 70.8827 71.6838C71.1858 71.6237 71.4999 71.6545 71.7854 71.7724C72.0709 71.8903 72.315 72.09 72.4867 72.3461C72.6584 72.6023 72.75 72.9035 72.75 73.2115C72.75 73.6247 72.5854 74.0209 72.2924 74.313C71.9993 74.6051 71.6019 74.7692 71.1875 74.7692Z" fill="white"/>
</g>
<defs>
<filter id="filter0_d_499_601" x="0" y="0" width="83" height="89" filterUnits="userSpaceOnUse" color-interpolation-filters="sRGB">
<feFlood flood-opacity="0" result="BackgroundImageFix"/>
<feColorMatrix in="SourceAlpha" type="matrix" values="0 0 0 0 0 0 0 0 0 0 0 0 0 0 0 0 0 0 127 0" result="hardAlpha"/>
<feOffset dy="4"/>
<feGaussianBlur stdDeviation="2"/>
<feComposite in2="hardAlpha" operator="out"/>
<feColorMatrix type="matrix" values="0 0 0 0 0 0 0 0 0 0 0 0 0 0 0 0 0 0 0.25 0"/>
<feBlend mode="normal" in2="BackgroundImageFix" result="effect1_dropShadow_499_601"/>
<feBlend mode="normal" in="SourceGraphic" in2="effect1_dropShadow_499_601" result="shape"/>
</filter>
</defs>
</svg>
