<svg width="100" height="92" viewBox="0 0 100 92" fill="none" xmlns="http://www.w3.org/2000/svg">
<g filter="url(#filter0_d_497_144)">
<path d="M90.1202 10.1291C86.5166 5.37258 81.2061 2.07217 75.1369 0.713181C65.4641 -1.51945 55.5069 1.58682 49.7222 8.67299C44.0323 1.58682 34.2647 -1.51945 24.592 0.713181C13.876 3.04288 2.78082 12.4588 4.10845 32.0671C5.91024 50.9959 22.4108 70.313 48.0152 83.6117C48.1101 83.7088 48.2049 83.7088 48.3946 83.7088C48.7739 83.9029 49.248 84 49.7222 84C50.1963 84 50.7653 83.9029 51.2395 83.6117C51.3343 83.6117 51.3343 83.6117 51.4291 83.5146C77.4129 70.1189 94.1031 50.8018 95.9049 31.97C96.4739 23.2336 94.4824 15.6621 90.1202 10.1291Z" fill="white"/>
</g>
<defs>
<filter id="filter0_d_497_144" x="0" y="0" width="100" height="92" filterUnits="userSpaceOnUse" color-interpolation-filters="sRGB">
<feFlood flood-opacity="0" result="BackgroundImageFix"/>
<feColorMatrix in="SourceAlpha" type="matrix" values="0 0 0 0 0 0 0 0 0 0 0 0 0 0 0 0 0 0 127 0" result="hardAlpha"/>
<feOffset dy="4"/>
<feGaussianBlur stdDeviation="2"/>
<feComposite in2="hardAlpha" operator="out"/>
<feColorMatrix type="matrix" values="0 0 0 0 0 0 0 0 0 0 0 0 0 0 0 0 0 0 0.25 0"/>
<feBlend mode="normal" in2="BackgroundImageFix" result="effect1_dropShadow_497_144"/>
<feBlend mode="normal" in="SourceGraphic" in2="effect1_dropShadow_497_144" result="shape"/>
</filter>
</defs>
</svg>
