<svg width="55" height="53" viewBox="0 0 55 53" fill="none" xmlns="http://www.w3.org/2000/svg">
<path d="M55 31.812C55 30.2394 54.3528 28.7517 53.2541 27.6762C54.0406 26.6808 54.4763 25.4514 54.4861 24.1506C54.4971 22.6556 53.8994 21.2235 52.8043 20.1217C51.667 18.9773 50.1044 18.3214 48.5143 18.3214H36.0384L36.8408 13.1205C36.9435 12.4634 36.9924 11.791 36.9924 11.1253C36.9924 5.98009 33.5158 0 29.0351 0C27.7383 0 26.4752 0.457423 25.4803 1.28677L25.0189 1.67274L25.6697 10.2215C25.6972 10.5867 25.6685 10.9482 25.5842 11.2963C25.4986 11.6469 25.3581 11.9828 25.1692 12.2924L18.3156 24.983L18.0528 25.2077C17.8842 24.0492 16.8929 23.1527 15.6878 23.1527H2.39922C1.07556 23.1527 0 24.2288 0 25.551V50.6011C0 51.9227 1.07556 53 2.39922 53H15.6884C17.0115 53 18.0889 51.9227 18.0877 50.6011V49.34C18.0938 49.3455 18.0993 49.3486 18.1054 49.3534C20.5541 51.4341 23.7184 51.4586 23.8523 51.4586L43.8161 51.4512L43.8796 51.4488C46.9474 51.2796 49.3478 48.7433 49.3478 45.6763C49.3478 45.2128 49.2941 44.7572 49.1865 44.3157C51.2759 43.4228 52.6876 41.3647 52.6876 39.0013C52.6876 38.2177 52.5323 37.4598 52.2323 36.7526C53.9299 35.723 55 33.8743 55 31.812Z" fill="#722594"/>
</svg>
