<svg width="16" height="26" viewBox="0 0 16 26" fill="none" xmlns="http://www.w3.org/2000/svg">
<path d="M14.9279 25.8752H0.995192C0.731251 25.8752 0.47812 25.7703 0.291485 25.5837C0.104851 25.397 0 25.1439 0 24.88C0 24.616 0.104851 24.3629 0.291485 24.1762C0.47812 23.9896 0.731251 23.8848 0.995192 23.8848H14.9279C15.1918 23.8848 15.445 23.9896 15.6316 24.1762C15.8182 24.3629 15.9231 24.616 15.9231 24.88C15.9231 25.1439 15.8182 25.397 15.6316 25.5837C15.445 25.7703 15.1918 25.8752 14.9279 25.8752Z" fill="#722594"/>
<path d="M7.96154 0C5.85001 0 3.82496 0.838803 2.33188 2.33188C0.838802 3.82496 0 5.85001 0 7.96154C0 15.3061 6.96635 21.3966 7.31466 21.6554C7.49493 21.8096 7.72433 21.8943 7.96154 21.8943C8.19875 21.8943 8.42815 21.8096 8.60841 21.6554C8.95673 21.3966 15.9231 15.3061 15.9231 7.96154C15.9231 5.85001 15.0843 3.82496 13.5912 2.33188C12.0981 0.838803 10.0731 0 7.96154 0ZM7.96154 10.9471C7.37105 10.9471 6.79382 10.772 6.30284 10.444C5.81186 10.1159 5.4292 9.64961 5.20322 9.10407C4.97725 8.55853 4.91813 7.95823 5.03333 7.37908C5.14853 6.79994 5.43288 6.26796 5.85042 5.85042C6.26796 5.43288 6.79994 5.14853 7.37908 5.03333C7.95823 4.91813 8.55853 4.97725 9.10407 5.20322C9.64961 5.4292 10.1159 5.81186 10.444 6.30284C10.772 6.79382 10.9471 7.37105 10.9471 7.96154C10.9471 8.75336 10.6326 9.51276 10.0727 10.0727C9.51276 10.6326 8.75336 10.9471 7.96154 10.9471Z" fill="#722594"/>
</svg>
