<svg width="60" height="74" viewBox="0 0 60 74" fill="none" xmlns="http://www.w3.org/2000/svg">
<path d="M10.7379 73.564H49.2621C52.11 73.564 54.8412 72.4292 56.8549 70.4094C58.8687 68.3895 60 65.65 60 62.7935V11.3271C60 9.91273 59.7223 8.51218 59.1826 7.20544C58.643 5.89871 57.8521 4.71138 56.8549 3.71124C55.8578 2.71111 54.6741 1.91776 53.3713 1.3765C52.0685 0.835227 50.6722 0.556641 49.2621 0.556641H10.7379C7.89002 0.556641 5.1588 1.69139 3.14505 3.71124C1.13131 5.7311 0 8.47062 0 11.3271V62.7935C0 65.65 1.13131 68.3895 3.14505 70.4094C5.1588 72.4292 7.89002 73.564 10.7379 73.564ZM21.1289 20.9294H38.8711C39.5283 20.9294 40.1586 21.1913 40.6233 21.6574C41.088 22.1235 41.3491 22.7557 41.3491 23.4149C41.3491 24.0741 41.088 24.7063 40.6233 25.1724C40.1586 25.6386 39.5283 25.9004 38.8711 25.9004H21.1289C20.4717 25.9004 19.8414 25.6386 19.3767 25.1724C18.912 24.7063 18.6509 24.0741 18.6509 23.4149C18.6509 22.7557 18.912 22.1235 19.3767 21.6574C19.8414 21.1913 20.4717 20.9294 21.1289 20.9294ZM14.7439 34.5748H45.2561C45.9133 34.5748 46.5435 34.8367 47.0083 35.3028C47.473 35.7689 47.734 36.4011 47.734 37.0603C47.734 37.7195 47.473 38.3517 47.0083 38.8178C46.5435 39.2839 45.9133 39.5458 45.2561 39.5458H14.7439C14.0867 39.5458 13.4565 39.2839 12.9918 38.8178C12.527 38.3517 12.266 37.7195 12.266 37.0603C12.266 36.4011 12.527 35.7689 12.9918 35.3028C13.4565 34.8367 14.0867 34.5748 14.7439 34.5748ZM14.7439 48.2202H45.2561C45.9133 48.2202 46.5435 48.4821 47.0083 48.9482C47.473 49.4143 47.734 50.0465 47.734 50.7057C47.734 51.3649 47.473 51.9971 47.0083 52.4632C46.5435 52.9293 45.9133 53.1912 45.2561 53.1912H14.7439C14.0867 53.1912 13.4565 52.9293 12.9918 52.4632C12.527 51.9971 12.266 51.3649 12.266 50.7057C12.266 50.0465 12.527 49.4143 12.9918 48.9482C13.4565 48.4821 14.0867 48.2202 14.7439 48.2202Z" fill="#722594"/>
</svg>
