<svg width="19" height="19" viewBox="0 0 19 19" fill="none" xmlns="http://www.w3.org/2000/svg">
<path d="M17.8678 13.8387L15.0508 12.1139C14.1162 11.5477 12.9644 11.5477 12.0429 12.1271L11.3255 12.5681C10.6344 12.996 9.75899 12.9763 9.13372 12.522C8.07404 11.7518 7.16574 10.8565 6.44174 9.8624C6.00075 9.25674 5.99417 8.38775 6.41541 7.70309L6.87614 6.95918C7.44876 6.03752 7.45534 4.87886 6.8893 3.95062L5.16485 1.13297C4.72387 0.415393 3.96696 -0.0191041 3.12448 0.000645786C2.27542 0.0138124 1.5185 0.454892 1.09727 1.18564L1.05119 1.26464C-0.403399 3.77287 -0.344162 6.86701 1.20257 9.33574C3.36143 12.7854 6.21137 15.6359 9.66685 17.8018C10.9437 18.5984 12.3852 19 13.8332 19C15.1759 19 16.5251 18.6511 17.7362 17.9533L17.8218 17.9006C18.5458 17.4793 18.9868 16.7288 18.9999 15.8861C19.0065 15.0434 18.5853 14.2798 17.8678 13.8387Z" fill="#722594"/>
</svg>
