<svg width="100" height="100" viewBox="0 0 100 100" fill="none" xmlns="http://www.w3.org/2000/svg">
<ellipse cx="50.3464" cy="49.5494" rx="41.5534" ry="41.5576" fill="#722594"/>
<path d="M67.9285 19.8665C65.5112 19.8854 63.5464 21.8647 63.5464 24.2836C63.5464 26.7196 65.5279 28.7015 67.9636 28.7015C69.0606 28.7015 69.9497 29.5907 69.9497 30.6878C69.9497 31.7848 69.0606 32.674 67.9636 32.674H29.9604V77.7494H72.4326V24.4055C72.4326 21.9196 70.4131 19.8856 67.9285 19.8665ZM68.7525 71.3651C68.7525 72.4622 67.8635 73.3513 66.7665 73.3513H57.4537C56.3568 73.3513 55.4677 72.4622 55.4677 71.3651V61.807C55.4677 60.7099 56.3568 59.8207 57.4537 59.8207H60.124V57.4304H42.1838V59.8207H44.8541C45.951 59.8207 46.8402 60.7099 46.8402 61.807V71.3651C46.8402 72.4622 45.951 73.3513 44.8541 73.3513H35.5413C34.4445 73.3513 33.5553 72.4622 33.5553 71.3651V61.807C33.5553 60.7099 34.4445 59.8207 35.5413 59.8207H38.2116V55.4443C38.2116 54.3473 39.1008 53.4581 40.1977 53.4581H49.2153V50.5625H46.4975C45.4006 50.5625 44.5114 49.6734 44.5114 48.5763V39.0182C44.5114 37.9211 45.4006 37.032 46.4975 37.032H55.8103C56.9072 37.032 57.7963 37.9211 57.7963 39.0182V48.5763C57.7963 49.6734 56.9072 50.5625 55.8103 50.5625H53.1873V53.4581H62.11C63.207 53.4581 64.0961 54.3473 64.0961 55.4443V59.8209H66.7664C67.8633 59.8209 68.7524 60.71 68.7524 61.8071L68.7525 71.3651Z" fill="white"/>
<path d="M53.8241 41.0042H48.4834V46.5893H53.8241V41.0042Z" fill="white"/>
<path d="M42.8681 63.7928H37.5273V69.3779H42.8681V63.7928Z" fill="white"/>
<path d="M64.7802 63.7928H59.4395V69.3779H64.7802V63.7928Z" fill="white"/>
<path d="M28.0513 19.8655C25.6155 19.8655 23.6338 21.8472 23.6338 24.283C23.6338 26.7188 25.6155 28.7005 28.0513 28.7005H60.8341C59.17 26.0247 59.17 22.5413 60.8341 19.8655H28.0513Z" fill="white"/>
<path d="M99.3906 49.5494C99.3906 76.6387 77.4326 98.5988 50.3462 98.5988C23.2598 98.5988 1.30176 76.6387 1.30176 49.5494C1.30176 22.4601 23.2598 0.499939 50.3462 0.499939C77.4326 0.499939 99.3906 22.4601 99.3906 49.5494Z" stroke="#722594"/>
</svg>
