<svg width="74" height="60" viewBox="0 0 74 60" fill="none" xmlns="http://www.w3.org/2000/svg">
<path fill-rule="evenodd" clip-rule="evenodd" d="M25.6579 48.7613C25.1961 48.6389 24.9197 48.1586 25.0422 47.6972L25.5982 45.6286C25.7207 45.164 26.2013 44.8878 26.6631 45.0134L28.6295 45.5376C29.0159 44.8439 29.4996 44.2223 30.0556 43.6856L29.0347 41.9246C28.796 41.5102 28.9405 40.9735 29.3551 40.7349L31.2116 39.6645C31.6263 39.4228 32.1603 39.5672 32.4021 39.9815L33.4199 41.7457C34.1644 41.5322 34.9434 41.4255 35.7382 41.438L36.2628 39.473C36.3884 39.0116 36.869 38.7354 37.3308 38.8578L39.4009 39.4134C39.8626 39.5358 40.1422 40.0161 40.0166 40.4775L39.4888 42.4457C40.1831 42.8286 40.805 43.312 41.3453 43.8676L43.1076 42.8506C43.5222 42.6089 44.0594 42.7533 44.2981 43.1676L45.3693 45.0228C45.6112 45.4371 45.4667 45.9708 45.052 46.2125L43.2866 47.2295C43.5002 47.9734 43.607 48.7519 43.5913 49.5461L45.5609 50.0703C46.0227 50.1959 46.2991 50.6761 46.1766 51.1376L45.6206 53.2062C45.4981 53.6707 45.0175 53.947 44.5526 53.8214L42.5861 53.2941C42.2029 53.9878 41.7191 54.6093 41.1631 55.1492L42.1809 56.9102C42.4228 57.3246 42.2783 57.8613 41.8636 58.0999L40.0071 59.1703C39.5925 59.412 39.0553 59.2676 38.8166 58.8532L37.7988 57.0891C37.0544 57.3026 36.2753 57.4093 35.4806 57.3936L34.9529 59.3618C34.8303 59.8232 34.3497 60.0994 33.888 59.977L31.8179 59.4214C31.353 59.299 31.0765 58.8187 31.2022 58.3573L31.7268 56.3891C31.0326 56.0062 30.4106 55.5228 29.8734 54.9672L28.108 55.9873C27.6965 56.2259 27.1594 56.0815 26.9206 55.6672L25.8495 53.812C25.6076 53.3977 25.7521 52.864 26.1667 52.6223L27.9321 51.6053C27.7185 50.8613 27.6117 50.0829 27.6243 49.2887L25.6579 48.7613ZM20.4779 30.3103L21.7124 32.134L22.9469 30.3103L22.1176 24.0511H21.3543L20.4779 30.3103ZM30.2912 28.1129C30.2912 28.1129 30.2912 27.3282 30.0493 25.4385C29.8075 23.5488 26.1542 22.7892 24.7909 22.2587C23.8673 21.9009 23.8453 21.1067 23.8453 21.1067C22.57 22.6699 20.8674 22.6825 19.5701 21.0941C19.5701 21.0941 19.6769 21.8538 18.634 22.2587C17.2707 22.7892 13.6174 23.5488 13.3755 25.4385C13.1305 27.3282 13.1305 28.1129 13.1305 28.1129H20.1701L20.7543 23.9381C20.7952 23.6493 21.0528 23.552 21.3418 23.552H22.1648C22.4538 23.552 22.6799 23.6524 22.7176 23.9412L23.2705 28.1129H30.2912ZM18.1282 15.8928C18.1282 17.5784 18.4455 18.5201 19.4444 20.1461C20.2297 21.1475 20.9774 21.6058 21.7124 21.543C22.4475 21.6058 23.1951 21.1475 23.9773 20.1461C24.9793 18.5201 25.2966 17.5784 25.2966 15.8928C25.2966 11.0022 18.1282 11.0054 18.1282 15.8928ZM44.2541 30.439C43.6667 30.0277 43.5222 29.2085 43.9337 28.6183L45.7808 25.9847C46.1923 25.3977 47.0122 25.2533 47.5996 25.6645L50.1032 27.4161C51.0047 26.6376 52.0036 26.0067 53.0654 25.5327L52.5345 22.5255C52.4089 21.8161 52.8863 21.1349 53.5931 21.0125L56.7627 20.4538C57.4694 20.3282 58.1511 20.8053 58.2767 21.5116L58.8076 24.5219C59.9667 24.6035 61.1196 24.8547 62.2347 25.2784L63.9876 22.7766C64.3991 22.1896 65.2189 22.0452 65.8095 22.4565L68.4419 24.3022C69.0324 24.7134 69.1769 25.5327 68.7654 26.1197L67.0126 28.6246C67.7916 29.5224 68.423 30.5206 68.8942 31.5816L71.9067 31.0511C72.6135 30.9255 73.2983 31.4026 73.4208 32.1089L73.9799 35.2762C74.1056 35.9824 73.6281 36.6636 72.9213 36.7892L69.9088 37.3197C69.8272 38.478 69.5759 39.63 69.1487 40.7443L71.6554 42.4959C72.2428 42.9071 72.3873 43.7264 71.9758 44.3134L70.1287 46.9501C69.7172 47.5371 68.8974 47.6815 68.3068 47.2703L65.8064 45.5187C64.9048 46.2972 63.9059 46.9282 62.8441 47.399L63.375 50.4093C63.5007 51.1156 63.0232 51.7999 62.3164 51.9223L59.1469 52.4811C58.4401 52.6066 57.7584 52.1295 57.6328 51.4232L57.1019 48.4129C55.9428 48.3313 54.7899 48.0802 53.6748 47.6564L51.922 50.1582C51.5105 50.7452 50.6906 50.8896 50.1 50.4784L47.4645 48.6326C46.8771 48.2214 46.7326 47.4021 47.1441 46.8152L48.8969 44.3102C48.1179 43.4125 47.4865 42.4143 47.0122 41.3533L44.0028 41.8838C43.2929 42.0093 42.6113 41.5322 42.4887 40.8259L41.9296 37.6587C41.804 36.9524 42.2814 36.2712 42.9882 36.1457L46.0007 35.6152C46.0824 34.4569 46.3337 33.3049 46.7577 32.1905L44.2541 30.439ZM63.3562 40.2452C61.2672 43.2273 57.1553 43.9492 54.1743 41.8649C51.19 39.7775 50.4644 35.6685 52.5534 32.6896C54.6423 29.7076 58.7542 28.9825 61.7353 31.0699C64.7195 33.1573 65.4451 37.2663 63.3562 40.2452ZM25.5291 41.3878C25.5291 42.3578 24.7343 43.1519 23.7637 43.1519H19.4193C18.4486 43.1519 17.6539 42.3578 17.6539 41.3878V37.2632C16.0927 36.8708 14.6194 36.2555 13.275 35.4488L10.3567 38.3649C9.67195 39.0524 8.54738 39.0524 7.85944 38.3649L4.78729 35.295C4.10249 34.6107 4.10249 33.4869 4.78729 32.7995L7.70552 29.8834C6.89822 28.5399 6.28253 27.0708 5.89301 25.5107H1.76539C0.79474 25.5107 0 24.7165 0 23.7466V19.4053C0 18.4354 0.79474 17.6412 1.76539 17.6412H5.89301C6.28253 16.0811 6.90136 14.6089 7.70866 13.2654L4.78729 10.3493C4.10249 9.66186 4.10249 8.54124 4.78729 7.8538L7.85944 4.78385C8.54738 4.0964 9.66881 4.0964 10.3567 4.78385L13.275 7.69999C14.6194 6.89326 16.0927 6.27801 17.6539 5.88878V1.76412C17.6539 0.794169 18.4486 0 19.4193 0H23.7637C24.7343 0 25.5291 0.794169 25.5291 1.76412V5.88878C27.0903 6.27801 28.5604 6.8964 29.9048 7.70312L32.8262 4.78385C33.511 4.0964 34.6356 4.0964 35.3204 4.78385L38.3925 7.8538C39.0805 8.54124 39.0805 9.66186 38.3925 10.3493L35.4743 13.2654C36.2816 14.6089 36.8973 16.0811 37.29 17.6412H41.4176C42.3882 17.6412 43.183 18.4354 43.183 19.4053V23.7466C43.183 24.7165 42.3882 25.5107 41.4176 25.5107H37.29C36.8973 27.0708 36.2816 28.5399 35.4743 29.8834L38.3957 32.8026C39.0805 33.4869 39.0805 34.6107 38.3957 35.295L35.3235 38.3649C34.6356 39.0524 33.511 39.0524 32.8262 38.3649L29.9048 35.4488C28.5604 36.2555 27.0903 36.8708 25.5291 37.2632V41.3878ZM21.5899 9.93496C28.0232 9.93496 33.2409 15.1457 33.2409 21.5744C33.2409 28.0031 28.0232 33.217 21.5899 33.217C15.1566 33.217 9.9421 28.0031 9.9421 21.5744C9.9421 15.1457 15.1566 9.93496 21.5899 9.93496ZM39.8501 50.5537C39.225 52.8954 36.8156 54.2829 34.4722 53.6582C32.1289 53.0304 30.7373 50.6228 31.3655 48.2811C31.9938 45.9394 34.4031 44.5519 36.7465 45.1766C39.0899 45.8044 40.4783 48.212 39.8501 50.5537Z" fill="white"/>
</svg>
