<svg width="45" height="57" viewBox="0 0 45 57" fill="none" xmlns="http://www.w3.org/2000/svg">
<path d="M0.00985277 10.9715C-0.0200014 10.7719 0.0184833 10.5678 0.118575 10.3948C0.218666 10.2217 0.373992 10.0909 0.557377 10.0251C7.70804 6.74128 14.8386 3.44228 21.9492 0.128068C22.1096 0.0438627 22.2868 0 22.4666 0C22.6463 0 22.8235 0.0438627 22.984 0.128068C30.1383 3.46128 37.2926 6.76599 44.4469 10.0422C44.6206 10.0903 44.7717 10.2023 44.8724 10.3574C44.973 10.5124 45.0164 10.7002 44.9944 10.8859C44.9944 15.9599 44.9944 21.0395 44.9671 26.1134C44.9573 27.7765 44.8274 29.4363 44.5783 31.0791C43.7779 36.3095 41.7693 41.2593 38.7253 45.5027C34.8379 50.9586 29.8664 54.8581 23.5698 56.8307C22.8895 57.0564 22.1586 57.0564 21.4783 56.8307C15.6569 55.0257 10.5398 51.3351 6.87033 46.2951C2.4199 40.4635 0.0133077 33.2256 0.0481793 25.7771C0.0481793 23.5822 0.0481793 21.393 0.0481793 19.1981C0.0481793 16.4559 0.0481795 13.7137 0.00985277 10.9715ZM39.1852 28.5022H39.9244C39.9244 28.2684 39.9572 28.0689 39.9572 27.8751C39.9572 23.3142 39.9572 18.7667 39.9572 14.2325C39.9874 14.0788 39.9637 13.9189 39.8904 13.7819C39.817 13.6448 39.6989 13.5397 39.5575 13.4856C34.0239 10.9544 28.4939 8.40599 22.9675 5.84052C22.8307 5.77781 22.6828 5.7379 22.4912 5.66378C22.4912 5.88613 22.4912 6.04575 22.4912 6.20538C22.4912 13.4951 22.4912 20.783 22.4912 28.0689C22.4912 28.2285 22.4912 28.3882 22.5295 28.5535C22.3762 28.5535 22.2229 28.5079 22.0641 28.5079H5.52342C5.39202 28.5079 5.25514 28.5079 5.12373 28.5079C5.90121 37.3901 12.2689 48.4615 22.5295 51.6541V28.5022H39.1852Z" fill="#722594"/>
</svg>
