<svg width="100" height="100" viewBox="0 0 100 100" fill="none" xmlns="http://www.w3.org/2000/svg">
<rect x="4.52832" y="4.34607" width="90.8132" height="90.8224" rx="45.4066" fill="#722594"/>
<path d="M32.7525 45.8913C36.001 45.8913 38.6345 43.2578 38.6345 40.0093C38.6345 36.7608 36.001 34.1274 32.7525 34.1274C29.504 34.1274 26.8706 36.7608 26.8706 40.0093C26.8706 43.2578 29.504 45.8913 32.7525 45.8913Z" fill="white"/>
<path d="M69.1705 45.8913C72.419 45.8913 75.0524 43.2578 75.0524 40.0093C75.0524 36.7608 72.419 34.1274 69.1705 34.1274C65.922 34.1274 63.2886 36.7608 63.2886 40.0093C63.2886 43.2578 65.922 45.8913 69.1705 45.8913Z" fill="white"/>
<path d="M50.3876 76.1395C49.7305 76.1395 49.0769 76.1142 48.427 76.0637C41.579 75.3685 35.2255 72.1799 30.5754 67.1045C30.1751 66.5206 30.0046 65.8094 30.0967 65.1075C30.1888 64.4056 30.5369 63.7625 31.0742 63.3017C31.6116 62.8409 32.3002 62.5949 33.0079 62.6109C33.7156 62.6269 34.3924 62.9039 34.9083 63.3886C35.4607 64.0278 48.7194 78.9887 67.2752 63.0745C67.5534 62.7916 67.8873 62.5696 68.2556 62.4223C68.624 62.275 69.0189 62.2056 69.4155 62.2186C69.812 62.2317 70.2015 62.3267 70.5594 62.4979C70.9174 62.669 71.2359 62.9125 71.4951 63.2129C71.7542 63.5134 71.9482 63.8643 72.0649 64.2435C72.1816 64.6227 72.2184 65.022 72.1731 65.4162C72.1277 65.8104 72.0011 66.1909 71.8013 66.5336C71.6016 66.8764 71.3329 67.1741 71.0123 67.4078C64.2746 73.2145 57.3419 76.1395 50.3876 76.1395Z" fill="white"/>
<path d="M99.207 49.9851C99.207 77.0744 77.2491 99.0345 50.1626 99.0345C23.0762 99.0345 1.11816 77.0744 1.11816 49.9851C1.11816 22.8958 23.0762 0.935669 50.1626 0.935669C77.2491 0.935669 99.207 22.8958 99.207 49.9851Z" stroke="#722594"/>
</svg>
