<svg width="49" height="28" viewBox="0 0 49 28" fill="none" xmlns="http://www.w3.org/2000/svg">
<path d="M0.624128 4.16823C0.416675 3.95596 0.254415 3.70306 0.147333 3.4251C0.0402504 3.14713 -0.00939103 2.84998 0.0014627 2.55192C-0.00676705 2.25857 0.0441925 1.9666 0.151239 1.69378C0.258285 1.42096 0.419179 1.173 0.624128 0.964985C0.827066 0.753171 1.07041 0.58511 1.33947 0.470956C1.60852 0.356803 1.8977 0.298928 2.18952 0.300826L15.5739 0.300826L33.3926 0.300826L46.777 0.300826C47.3647 0.306946 47.9266 0.545458 48.3422 0.965198C48.7578 1.38494 48.9939 1.95247 49 2.54604C48.9766 3.17568 48.731 3.77611 48.3075 4.23876L26.0138 26.6674C25.8157 26.874 25.5776 27.037 25.3142 27.1463C25.0508 27.2555 24.7679 27.3086 24.4833 27.3021C24.1877 27.3127 23.8931 27.2618 23.6179 27.1526C23.3426 27.0434 23.0924 26.8782 22.883 26.6674L0.624128 4.16823Z" fill="#722594"/>
</svg>
