<svg width="60" height="56" viewBox="0 0 60 56" fill="none" xmlns="http://www.w3.org/2000/svg">
<path d="M58.743 41.4512L38.4261 4.97685C36.6911 1.85828 33.5394 0 29.9994 0C26.4594 0 23.3077 1.8615 21.5728 4.97685L1.25582 41.4512C-0.447339 44.5087 -0.415504 48.1449 1.33541 51.1702C3.08632 54.1956 6.20931 56.0056 9.68248 56.0056H50.3163C53.7895 56.0056 56.9093 54.1988 58.6634 51.1702C60.4175 48.1417 60.4462 44.5087 58.743 41.4512ZM27.6118 15.0141C27.6118 13.6831 28.6815 12.6029 29.9994 12.6029C31.3174 12.6029 32.387 13.6831 32.387 15.0141V34.3043C32.387 35.6353 31.3174 36.7155 29.9994 36.7155C28.6815 36.7155 27.6118 35.6353 27.6118 34.3043V15.0141ZM29.9994 47.1643C28.2421 47.1643 26.8159 45.724 26.8159 43.9493C26.8159 42.1746 28.2421 40.7343 29.9994 40.7343C31.7567 40.7343 33.1829 42.1746 33.1829 43.9493C33.1829 45.724 31.7567 47.1643 29.9994 47.1643Z" fill="white"/>
</svg>
