<svg width="70" height="71" viewBox="0 0 70 71" fill="none" xmlns="http://www.w3.org/2000/svg">
<path fill-rule="evenodd" clip-rule="evenodd" d="M35 0C30.4037 -3.54306e-06 25.8525 0.918229 21.6061 2.70227C17.3597 4.48631 13.5013 7.10122 10.2513 10.3977C7.0012 13.6942 4.42312 17.6077 2.66421 21.9147C0.905296 26.2218 -3.49316e-06 30.8381 0 35.5C-3.49316e-06 40.1619 0.905296 44.7782 2.66421 49.0853C4.42312 53.3923 7.0012 57.3058 10.2513 60.6023C13.5013 63.8988 17.3597 66.5137 21.6061 68.2977C25.8525 70.0818 30.4037 71 35 71C39.5963 71 44.1475 70.0818 48.3939 68.2977C52.6403 66.5137 56.4987 63.8988 59.7487 60.6023C62.9988 57.3058 65.5769 53.3923 67.3358 49.0853C69.0947 44.7782 70 40.1619 70 35.5C70 30.8381 69.0947 26.2218 67.3358 21.9147C65.5769 17.6077 62.9988 13.6942 59.7487 10.3977C56.4987 7.10122 52.6403 4.48631 48.3939 2.70227C44.1475 0.918229 39.5963 -3.54306e-06 35 0ZM33.5945 5.68H36.3945V7.09445V14.2028V15.6172H33.5945V14.2028V7.09445V5.68ZM18.1562 16.4382L34.6254 31.2594C34.7499 31.2473 34.8749 31.2408 35 31.24C35.5125 31.2417 36.0203 31.3385 36.4984 31.5257C45.6905 26.7349 59.7625 19.3641 59.7625 19.3641L61.1598 21.8159L39.1398 36.1739C38.982 37.1729 38.4788 38.0824 37.7203 38.7394C36.9618 39.3965 35.9975 39.7583 35 39.76C34.7412 39.7592 34.4831 39.7341 34.2289 39.6851L22.2168 60.8076L21.5141 62.0335L19.0859 60.619L19.7887 59.3821L31.8117 38.2651C31.1606 37.495 30.8019 36.5145 30.8 35.5C30.801 35.375 30.8073 35.25 30.8191 35.1256L16.1766 18.4461L18.1562 16.4382ZM5.59727 34.0772H7.00547H14H15.3945V36.9172H14H7.00547H5.59727V34.0772ZM54.5945 34.0772H56H62.9973H64.4027V36.9172H62.9973H56H54.5945V34.0772ZM33.5945 55.3772H36.3945V56.8028V63.9V65.3255H33.5945V63.9V56.8028V55.3772Z" fill="white"/>
</svg>
