<svg width="106" height="106" viewBox="0 0 106 106" fill="none" xmlns="http://www.w3.org/2000/svg">
<circle cx="53" cy="53" r="53" fill="#DC8DFF" fill-opacity="0.49"/>
<path d="M82.9609 32.8313H37.521L36.9738 29.5281C36.6723 27.7017 35.7546 26.0444 34.3831 24.8496C33.0116 23.6548 31.2748 22.9996 29.4803 23H22.04C21.2337 23 20.4605 23.3307 19.8904 23.9192C19.3203 24.5078 19 25.3061 19 26.1385C19 26.9709 19.3203 27.7692 19.8904 28.3577C20.4605 28.9463 21.2337 29.277 22.04 29.277H29.4803C29.8424 29.2715 30.1945 29.3998 30.4731 29.6386C30.7518 29.8773 30.9387 30.211 31.0003 30.5795L36.9966 66.9075C35.643 67.7199 34.5375 68.9085 33.8062 70.3378C33.0748 71.7671 32.747 73.3798 32.86 74.992C32.973 76.6043 33.5223 78.1514 34.4453 79.4572C35.3684 80.7629 36.628 81.7748 38.0809 82.3775C39.5337 82.9803 41.1213 83.1497 42.6628 82.8665C44.2043 82.5833 45.6378 81.8588 46.8001 80.7756C47.9623 79.6924 48.8065 78.294 49.2365 76.7397C49.6666 75.1853 49.6652 73.5376 49.2325 71.984H63.7787C63.3005 73.7255 63.3648 75.5781 63.9625 77.2798C64.5601 78.9816 65.6609 80.4462 67.1091 81.4666C68.5572 82.487 70.2795 83.0115 72.0322 82.9659C73.7849 82.9204 75.4794 82.307 76.876 81.2126C78.2726 80.1183 79.3005 78.5983 79.8144 76.8677C80.3283 75.1371 80.3022 73.2834 79.7398 71.569C79.1773 69.8546 78.107 68.3661 76.6802 67.3141C75.2533 66.2622 73.5423 65.6999 71.789 65.707H42.9093L42.0885 60.7168H68.6883C71.6421 60.7452 74.5245 59.7796 76.8994 57.9661C79.2743 56.1526 81.0126 53.59 81.8513 50.6658L85.8717 36.8721C86.0079 36.4036 86.0361 35.9086 85.9541 35.4267C85.8721 34.9449 85.6822 34.4895 85.3994 34.0969C85.1166 33.7043 84.7488 33.3855 84.3254 33.1657C83.902 32.946 83.4348 32.8315 82.9609 32.8313ZM43.4413 74.3143C43.4413 74.7799 43.3076 75.235 43.0571 75.6221C42.8066 76.0092 42.4505 76.3109 42.0339 76.489C41.6173 76.6672 41.1588 76.7138 40.7166 76.623C40.2743 76.5322 39.868 76.308 39.5492 75.9788C39.2303 75.6496 39.0132 75.2302 38.9252 74.7736C38.8372 74.317 38.8824 73.8437 39.0549 73.4136C39.2275 72.9834 39.5197 72.6158 39.8947 72.3572C40.2696 72.0985 40.7104 71.9605 41.1614 71.9605C41.4614 71.9594 41.7587 72.0196 42.0362 72.1374C42.3137 72.2552 42.5659 72.4284 42.7785 72.6471C42.991 72.8658 43.1596 73.1256 43.2747 73.4117C43.3897 73.6978 43.4489 74.0046 43.4489 74.3143H43.4413ZM71.7814 76.6682C71.3305 76.6682 70.8897 76.5302 70.5147 76.2715C70.1398 76.0129 69.8476 75.6452 69.675 75.2151C69.5024 74.785 69.4573 74.3117 69.5452 73.8551C69.6332 73.3985 69.8504 72.9791 70.1692 72.6499C70.4881 72.3207 70.8943 72.0965 71.3366 72.0057C71.7789 71.9149 72.2373 71.9615 72.6539 72.1397C73.0705 72.3178 73.4266 72.6195 73.6771 73.0066C73.9277 73.3937 74.0614 73.8488 74.0614 74.3143C74.0534 74.9318 73.8107 75.5213 73.3857 75.9558C72.9606 76.3902 72.3871 76.6348 71.789 76.6368L71.7814 76.6682ZM76.0602 48.8612C75.5961 50.4807 74.6354 51.9009 73.3224 52.9083C72.0095 53.9157 70.4153 54.4559 68.7794 54.4477H41.1006L38.5546 39.1083H78.8341L76.0602 48.8612Z" fill="black"/>
</svg>
