<svg width="106" height="106" viewBox="0 0 106 106" fill="none" xmlns="http://www.w3.org/2000/svg">
<circle cx="53" cy="53" r="53" fill="#DC8DFF" fill-opacity="0.49"/>
<path d="M81.2826 51.2941C81.002 50.1246 80.4938 49.0219 79.787 48.0488C79.0802 47.0757 78.1886 46.2514 77.1632 45.623C76.1378 44.9945 74.9987 44.5741 73.8108 44.3859C72.623 44.1977 71.4097 44.2453 70.2402 44.526V37.6295C70.238 35.6845 69.4642 33.8197 68.0887 32.4444C66.7133 31.0691 64.8484 30.2956 62.9033 30.2936H56.0156C56.3687 28.8109 56.3516 27.2642 55.9658 25.7897C55.5294 24.1196 54.6256 22.6087 53.3607 21.4342C52.0957 20.2597 50.522 19.4704 48.8242 19.1588C47.5016 18.9092 46.1402 18.9543 44.837 19.2908C43.5338 19.6274 42.3208 20.2471 41.2844 21.106C40.248 21.9648 39.4138 23.0416 38.841 24.2596C38.2682 25.4776 37.9711 26.807 37.9707 28.153C37.9702 28.8741 38.0554 29.5926 38.2246 30.2936H31.3369C29.3919 30.2956 27.527 31.0691 26.1515 32.4444C24.7761 33.8197 24.0023 35.6845 24 37.6295V45.0065C24.0001 45.4163 24.0959 45.8205 24.2799 46.1868C24.464 46.553 24.731 46.8711 25.0599 47.1158C25.3887 47.3605 25.7702 47.5249 26.1738 47.596C26.5775 47.667 26.9922 47.6427 27.3848 47.525C28.533 47.1866 29.7549 47.1891 30.9017 47.5322C32.0486 47.8753 33.071 48.5443 33.8448 49.4577C34.5102 50.2453 34.9666 51.1878 35.1721 52.1982C35.3776 53.2087 35.3255 54.2545 35.0207 55.2396C34.7158 56.2246 34.168 57.117 33.4276 57.8347C32.6873 58.5524 31.7782 59.0722 30.7842 59.3463C29.6689 59.6509 28.4907 59.637 27.3829 59.3063C26.9903 59.1889 26.5757 59.1648 26.1722 59.2361C25.7687 59.3073 25.3874 59.4719 25.0588 59.7166C24.7301 59.9614 24.4633 60.2795 24.2794 60.6457C24.0956 61.012 23.9999 61.4161 24 61.8258V69.2067C24.0021 71.1519 24.7758 73.0169 26.1512 74.3923C27.5267 75.7678 29.3917 76.5415 31.3369 76.5436H38.7549C39.1695 76.5435 39.5782 76.4453 39.9477 76.2572C40.3171 76.069 40.6368 75.7962 40.8808 75.461C41.1247 75.1257 41.286 74.7375 41.3513 74.3281C41.4167 73.9187 41.3843 73.4997 41.2569 73.1051C40.9649 72.1832 40.8943 71.2055 41.051 70.2512C41.2076 69.2969 41.5871 68.3931 42.1586 67.6129C42.7301 66.8328 43.4774 66.1985 44.34 65.7613C45.2027 65.3242 46.1562 65.0967 47.1232 65.0972C48.0903 65.0976 49.0436 65.3261 49.9057 65.7641C50.7679 66.2021 51.5147 66.8372 52.0854 67.6179C52.6561 68.3986 53.0346 69.3028 53.1903 70.2573C53.3461 71.2117 53.2745 72.1894 52.9815 73.111C52.8549 73.5053 52.8232 73.924 52.8891 74.3329C52.955 74.7418 53.1165 75.1294 53.3606 75.464C53.6047 75.7986 53.9244 76.0708 54.2936 76.2584C54.6629 76.4461 55.0712 76.5438 55.4854 76.5436H62.9034C64.4391 76.5412 65.9354 76.0575 67.1818 75.1606C68.4283 74.2636 69.3623 72.9985 69.8524 71.5432C71.1221 73.2099 72.7857 74.5352 74.6939 75.4003C76.6022 76.2654 78.6954 76.6432 80.7856 76.4997C82.8759 76.3562 84.8978 75.6959 86.67 74.5781C88.4421 73.4604 89.909 71.9201 90.9389 70.0955C91.9688 68.2709 92.5296 66.2192 92.5709 64.1244C92.6123 62.0296 92.1328 59.9573 91.1756 58.0936C90.2184 56.2298 88.8134 54.6329 87.0867 53.4461C85.36 52.2594 83.3656 51.5199 81.2826 51.2941ZM67.2402 64.7174V69.2067C67.239 70.3565 66.7817 71.4589 65.9686 72.272C65.1556 73.0851 64.0532 73.5424 62.9033 73.5436H55.9785C56.329 72.191 56.365 70.7762 56.0839 69.4075C55.8028 68.0388 55.2121 66.7527 54.3569 65.6477C53.5017 64.5427 52.4049 63.6483 51.1505 63.0329C49.896 62.4175 48.5174 62.0975 47.1201 62.0975C45.7229 62.0975 44.3442 62.4175 43.0898 63.0329C41.8354 63.6483 40.7385 64.5427 39.8834 65.6477C39.0282 66.7527 38.4374 68.0388 38.1563 69.4075C37.8752 70.7762 37.9113 72.191 38.2617 73.5436H31.3369C30.1871 73.5424 29.0847 73.0851 28.2716 72.272C27.4585 71.4589 27.0012 70.3565 27 69.2067V62.3093C28.4983 62.6665 30.0619 62.645 31.5498 62.2468C33.2254 61.8025 34.7383 60.8866 35.9087 59.6078C37.0791 58.329 37.8578 56.7412 38.1524 55.0329C38.4173 53.5361 38.3057 51.9969 37.8276 50.554C37.3495 49.111 36.52 47.8097 35.4137 46.7672C34.3074 45.7248 32.9591 44.9739 31.4903 44.5823C30.0216 44.1907 28.4784 44.1707 27 44.5241V37.6295C27.0014 36.4798 27.4588 35.3777 28.2719 34.5648C29.0849 33.7519 30.1872 33.2948 31.3369 33.2936H38.707C39.1175 33.2936 39.5222 33.1976 39.889 33.0132C40.2557 32.8288 40.5742 32.5611 40.8189 32.2316C41.0637 31.9021 41.2279 31.5199 41.2986 31.1155C41.3692 30.7112 41.3442 30.2959 41.2256 29.903C40.9938 29.1225 40.9193 28.3038 41.0063 27.4943C41.0932 26.6849 41.34 25.9007 41.7322 25.1873C42.1245 24.4739 42.6544 23.8454 43.2914 23.3383C43.9283 22.8312 44.6595 22.4556 45.4427 22.2332C46.2259 22.0108 47.0454 21.946 47.8538 22.0426C48.6622 22.1393 49.4433 22.3954 50.152 22.7961C50.8607 23.1969 51.4827 23.7343 51.9822 24.3773C52.4816 25.0202 52.8485 25.7559 53.0615 26.5416C53.3572 27.6469 53.3406 28.8124 53.0137 29.9088C52.8958 30.3015 52.8715 30.7163 52.9425 31.1201C53.0136 31.5239 53.1781 31.9055 53.4229 32.2344C53.6677 32.5632 53.986 32.8303 54.3524 33.0142C54.7189 33.1981 55.1232 33.2938 55.5332 33.2936H62.9033C64.053 33.2948 65.1553 33.7519 65.9684 34.5648C66.7814 35.3777 67.2388 36.4798 67.2402 37.6295V45.0094C67.2403 45.4197 67.3363 45.8243 67.5207 46.1909C67.7051 46.5575 67.9727 46.8758 68.3021 47.1204C68.6315 47.3651 69.0136 47.5293 69.4178 47.5999C69.822 47.6705 70.2371 47.6455 70.6299 47.527C72.1366 47.0798 73.7573 47.2271 75.1588 47.9384C76.5602 48.6498 77.6358 49.8711 78.1642 51.3513C75.1404 51.7742 72.371 53.2746 70.3652 55.5766C68.3594 57.8786 67.2522 60.8273 67.2471 63.8805C67.2471 64.0578 67.2664 64.2302 67.2737 64.4058C67.2517 64.5082 67.2405 64.6127 67.2402 64.7174ZM79.9102 73.5436C77.9989 73.5437 76.1304 72.977 74.5412 71.9152C72.952 70.8534 71.7133 69.3441 70.9818 67.5783C70.2503 65.8125 70.0589 63.8695 70.4318 61.9949C70.8046 60.1203 71.725 58.3983 73.0765 57.0468C74.428 55.6953 76.1499 54.775 78.0245 54.4021C79.8991 54.0292 81.8422 54.2206 83.608 54.9521C85.3738 55.6836 86.883 56.9223 87.9449 58.5115C89.0067 60.1008 89.5734 61.9692 89.5733 63.8805C89.5703 66.4424 88.5513 68.8986 86.7398 70.7101C84.9282 72.5216 82.4721 73.5407 79.9102 73.5436Z" fill="black"/>
<path d="M82.2275 60.6812L79.0117 63.8971L77.7666 62.6519C77.6274 62.5122 77.462 62.4013 77.2799 62.3256C77.0979 62.2499 76.9026 62.2108 76.7054 62.2106C76.5082 62.2104 76.3129 62.2491 76.1307 62.3245C75.9484 62.3998 75.7828 62.5104 75.6434 62.6499C75.5039 62.7893 75.3934 62.9549 75.318 63.1371C75.2426 63.3194 75.2039 63.5147 75.2041 63.7119C75.2043 63.9091 75.2434 64.1043 75.3191 64.2864C75.3949 64.4685 75.5058 64.6339 75.6455 64.773L77.9511 67.0797C78.0904 67.219 78.2557 67.3295 78.4377 67.4049C78.6197 67.4803 78.8147 67.5191 79.0117 67.5191C79.2087 67.5191 79.4037 67.4803 79.5857 67.4049C79.7677 67.3295 79.933 67.219 80.0722 67.0797L84.3486 62.8023C84.6299 62.5211 84.7879 62.1396 84.7879 61.7418C84.7879 61.344 84.6299 60.9625 84.3486 60.6812C84.0673 60.4 83.6858 60.2419 83.2881 60.2419C82.8903 60.2419 82.5088 60.4 82.2275 60.6812Z" fill="black"/>
</svg>
