<svg width="106" height="106" viewBox="0 0 106 106" fill="none" xmlns="http://www.w3.org/2000/svg">
<circle cx="53" cy="53" r="53" fill="#DC8DFF" fill-opacity="0.49"/>
<path d="M28.0109 33.1276C27.9778 32.907 28.0205 32.6813 28.1317 32.4901C28.243 32.2989 28.4155 32.1542 28.6193 32.0815C36.5645 28.4516 44.4874 24.805 52.3879 21.1416C52.5663 21.0485 52.7632 21 52.9628 21C53.1625 21 53.3594 21.0485 53.5377 21.1416C61.487 24.826 69.4362 28.4789 77.3855 32.1004C77.5785 32.1536 77.7464 32.2773 77.8582 32.4488C77.97 32.6202 78.0182 32.8277 77.9938 33.033C77.9938 38.6416 77.9938 44.2565 77.9634 49.8651C77.9526 51.7034 77.8082 53.5382 77.5315 55.354C76.6421 61.1356 74.4104 66.607 71.0281 71.2975C66.7088 77.3283 61.1848 81.6387 54.1887 83.8192C53.4328 84.0687 52.6207 84.0687 51.8648 83.8192C45.3965 81.824 39.7108 77.7445 35.6337 72.1735C30.6888 65.7274 28.0148 57.7267 28.0535 49.4933C28.0535 47.0671 28.0535 44.6472 28.0535 42.2211C28.0535 39.1899 28.0535 36.1587 28.0109 33.1276ZM71.5391 52.5056H72.3604C72.3604 52.2472 72.3969 52.0266 72.3969 51.8124C72.3969 46.7709 72.3969 41.7442 72.3969 36.7322C72.4305 36.5623 72.4041 36.3856 72.3226 36.2341C72.2412 36.0827 72.1099 35.9665 71.9528 35.9067C65.8043 33.1087 59.6599 30.2918 53.5195 27.456C53.3674 27.3866 53.2031 27.3425 52.9902 27.2606C52.9902 27.5064 52.9902 27.6828 52.9902 27.8593C52.9902 35.9172 52.9902 43.9729 52.9902 52.0266C52.9902 52.2031 52.9902 52.3795 53.0328 52.5623C52.8625 52.5623 52.6921 52.5119 52.5157 52.5119H34.1371C33.9911 52.5119 33.839 52.5119 33.693 52.5119C34.5569 62.3301 41.6321 74.5681 53.0328 78.0971V52.5056H71.5391Z" fill="black"/>
</svg>
