<svg width="106" height="106" viewBox="0 0 106 106" fill="none" xmlns="http://www.w3.org/2000/svg">
<circle cx="53" cy="53" r="53" fill="#DC8DFF" fill-opacity="0.49"/>
<path d="M54.5054 59.8668H31.5425V64.5912C31.5425 68.4428 34.3565 71.6973 38.1194 72.1978L44.8822 73.0072C47.1889 73.3139 48.8478 75.4108 48.6445 77.7627L47.1849 88.1908C46.8826 91.6897 49.4158 94.782 52.8607 95.1189L53.8314 95.2139H54.5054L55.4762 95.1189C58.9211 94.782 61.4543 91.6897 61.152 88.1908L59.6924 77.7627C59.4891 75.4108 61.148 73.3139 63.4547 73.0072L70.2175 72.1978C73.9804 71.6973 76.7943 68.4428 76.7943 64.5912V59.8668H54.5054ZM54.1629 92.1398C52.7803 92.1398 51.6595 91.0023 51.6595 89.5993C51.6595 88.1961 52.7803 87.0586 54.1629 87.0586C55.5454 87.0586 56.6661 88.1961 56.6661 89.5993C56.6661 91.0023 55.5454 92.1398 54.1629 92.1398Z" fill="black"/>
<path d="M53.8313 95.8584L52.8 95.7594C49.0243 95.3904 46.2221 91.9703 46.5526 88.136L48.017 77.6728C48.1872 75.6919 46.7758 73.9073 44.7999 73.6456L38.0452 72.8371C33.9728 72.2953 30.9078 68.7495 30.9078 64.5914V59.8664C30.9078 59.5108 31.1921 59.2223 31.5425 59.2223H76.7944C77.1448 59.2223 77.4291 59.5108 77.4291 59.8664V64.5914C77.4291 68.7512 74.3641 72.2953 70.3 72.8371L63.5296 73.6456C61.562 73.9073 60.1505 75.6919 60.3249 77.7064L61.7801 88.1008C62.1157 91.9703 59.3134 95.3904 55.5378 95.7594L53.8313 95.8584ZM32.1771 60.5105V64.5914C32.1771 68.1054 34.767 71.1011 38.2022 71.559L44.9569 72.3675C47.617 72.7214 49.511 75.1149 49.2772 77.8204L47.8129 88.2819C47.5468 91.3816 49.8366 94.176 52.9223 94.4779L53.8925 94.5736L54.5056 94.5702L55.4155 94.4779C58.5011 94.176 60.791 91.3816 60.5199 88.2484L59.0647 77.854C58.8267 75.1149 60.7207 72.7214 63.3726 72.3675L70.143 71.559C73.5699 71.1011 76.1598 68.1054 76.1598 64.5914V60.5105H32.1771ZM54.1635 92.7839C52.4331 92.7839 51.025 91.3548 51.025 89.5986C51.025 87.8425 52.4331 86.4151 54.1635 86.4151C55.8939 86.4151 57.3012 87.8425 57.3012 89.5986C57.3012 91.3548 55.8939 92.7839 54.1635 92.7839ZM54.1635 87.7032C53.133 87.7032 52.2943 88.5536 52.2943 89.5986C52.2943 90.6453 53.133 91.4957 54.1635 91.4957C55.194 91.4957 56.0319 90.6453 56.0319 89.5986C56.0319 88.5536 55.194 87.7032 54.1635 87.7032Z" fill="black"/>
<path d="M75.1054 57.342H33.0664C32.1723 57.342 31.4327 56.6358 31.3773 55.7309L29.8535 30.8772C29.8246 30.4042 29.989 29.9396 30.3096 29.5949C30.6294 29.2493 31.0757 29.0531 31.5426 29.0531H63.5842C64.2321 29.0531 64.8229 29.428 65.1064 30.0192L67.6483 35.3221L68.8135 30.3715C68.9953 29.5982 69.6762 29.0531 70.4596 29.0531H76.7978C77.2672 29.0531 77.7151 29.251 78.0349 29.5991C78.3555 29.9471 78.5183 30.4142 78.4861 30.8889L76.7937 55.7427C76.7326 56.6425 75.9946 57.342 75.1054 57.342ZM34.6572 53.9068H73.5262L74.9848 32.4883H71.795L69.8423 40.7885C69.6762 41.4938 69.0911 42.0171 68.3804 42.0968C67.6764 42.1798 66.988 41.7932 66.674 41.1407L62.5256 32.4883H33.3432L34.6572 53.9068Z" fill="black"/>
<path d="M37.9212 51.7339C37.0411 51.7339 36.2982 51.0428 36.2346 50.1387L34.881 30.8931C34.8149 29.9471 35.5165 29.1252 36.4486 29.0573C37.3924 29.0179 38.1915 29.7022 38.2576 30.6482L39.6112 49.8938C39.6773 50.8398 38.9757 51.6617 38.0435 51.7297C38.0022 51.7322 37.9617 51.7339 37.9212 51.7339Z" fill="black"/>
<path d="M42.872 48.8354C41.9969 48.8354 41.2548 48.151 41.1862 47.2503L39.9376 30.9031C39.8657 29.9579 40.5623 29.1319 41.4945 29.0581C42.4167 28.9742 43.2398 29.6913 43.3125 30.6381L44.5611 46.9853C44.633 47.9305 43.9364 48.7565 43.0043 48.8303C42.9596 48.8337 42.9158 48.8354 42.872 48.8354Z" fill="black"/>
<path d="M47.8637 46.7487C46.9961 46.7487 46.2581 46.0761 46.1796 45.183L44.9318 30.9224C44.8491 29.978 45.5367 29.1436 46.468 29.0597C47.401 28.9825 48.2207 29.6753 48.3034 30.6188L49.5512 44.8794C49.6338 45.8237 48.9463 46.6582 48.015 46.742C47.9646 46.7462 47.9133 46.7487 47.8637 46.7487Z" fill="black"/>
<path d="M86.2514 29.9966C85.3167 29.9966 84.559 29.2276 84.559 28.279V22.2675C84.559 21.319 85.3167 20.5499 86.2514 20.5499C87.186 20.5499 87.9438 21.319 87.9438 22.2675V28.279C87.9438 29.2276 87.186 29.9966 86.2514 29.9966Z" fill="black"/>
<path d="M89.2671 27.1627H82.6413C81.7066 27.1627 80.9489 26.3936 80.9489 25.4451C80.9489 24.4966 81.7066 23.7275 82.6413 23.7275H89.2671C90.2017 23.7275 90.9595 24.4966 90.9595 25.4451C90.9595 26.3936 90.2017 27.1627 89.2671 27.1627Z" fill="black"/>
<path d="M19.4572 54.815C18.5226 54.815 17.7648 54.0459 17.7648 53.0974V47.0859C17.7648 46.1373 18.5226 45.3683 19.4572 45.3683C20.3918 45.3683 21.1496 46.1373 21.1496 47.0859V53.0974C21.1496 54.0459 20.3918 54.815 19.4572 54.815Z" fill="black"/>
<path d="M22.6426 51.8093H16.0167C15.0821 51.8093 14.3243 51.0402 14.3243 50.0917C14.3243 49.1432 15.0821 48.3741 16.0167 48.3741H22.6426C23.5772 48.3741 24.335 49.1432 24.335 50.0917C24.335 51.0402 23.5772 51.8093 22.6426 51.8093Z" fill="black"/>
<path d="M44.7682 19.4738C43.8336 19.4738 43.0758 18.7047 43.0758 17.7562V11.7447C43.0758 10.7962 43.8336 10.0271 44.7682 10.0271C45.7028 10.0271 46.4606 10.7962 46.4606 11.7447V17.7562C46.4606 18.7047 45.7028 19.4738 44.7682 19.4738Z" fill="black"/>
<path d="M47.9531 16.468H41.3273C40.3927 16.468 39.6349 15.6989 39.6349 14.7504C39.6349 13.8019 40.3927 13.0328 41.3273 13.0328H47.9531C48.8877 13.0328 49.6455 13.8019 49.6455 14.7504C49.6455 15.6989 48.8877 16.468 47.9531 16.468Z" fill="black"/>
</svg>
